<?xml version="1.0" encoding="UTF-8" standalone="no"?>
<svg
   xmlns:dc="http://purl.org/dc/elements/1.1/"
   xmlns:cc="http://creativecommons.org/ns#"
   xmlns:rdf="http://www.w3.org/1999/02/22-rdf-syntax-ns#"
   xmlns:svg="http://www.w3.org/2000/svg"
   xmlns="http://www.w3.org/2000/svg"
   xmlns:xlink="http://www.w3.org/1999/xlink"
   xmlns:sodipodi="http://sodipodi.sourceforge.net/DTD/sodipodi-0.dtd"
   xmlns:inkscape="http://www.inkscape.org/namespaces/inkscape"
   width="999.76532"
   height="204.0723"
   version="1.1"
   id="Layer_1"
   x="0px"
   y="0px"
   viewBox="0 0 551.27413 112.68372"
   enable-background="new 0 0 529 108"
   xml:space="preserve"
   sodipodi:docname="Chrysler_2010.svg"
   inkscape:version="1.0.2-2 (e86c870879, 2021-01-15)"><metadata
   id="metadata30685"><rdf:RDF><cc:Work
       rdf:about=""><dc:format>image/svg+xml</dc:format><dc:type
         rdf:resource="http://purl.org/dc/dcmitype/StillImage" /><dc:title></dc:title></cc:Work></rdf:RDF></metadata><defs
   id="defs30683">
	
	
	

	<linearGradient
   y2="47.280102"
   x2="135.8092"
   y1="98.916"
   x1="131.2917"
   gradientUnits="userSpaceOnUse"
   id="SVGID_17_">
		<stop
   id="stop30396"
   style="stop-color:#3C3C3C"
   offset="2.808990e-002" />
		<stop
   id="stop30398"
   style="stop-color:#2D2D2D"
   offset="6.179780e-002" />
		<stop
   id="stop30400"
   style="stop-color:#8F8F8F"
   offset="0.2183" />
		<stop
   id="stop30402"
   style="stop-color:#B8B8B8"
   offset="0.2921" />
		<stop
   id="stop30404"
   style="stop-color:#474747"
   offset="0.5169" />
		<stop
   id="stop30406"
   style="stop-color:#FFFFFF"
   offset="0.5787" />
		<stop
   id="stop30408"
   style="stop-color:#E9E9E9"
   offset="0.7809" />
		<stop
   id="stop30410"
   style="stop-color:#CCCCCC"
   offset="0.882" />
		<stop
   id="stop30412"
   style="stop-color:#8B8B8B"
   offset="0.9382" />
		<stop
   id="stop30414"
   style="stop-color:#606060"
   offset="1" />
	</linearGradient>
	
	
	
		<linearGradient
   gradientTransform="matrix(-1,0,0,1,809,0)"
   y2="47.279999"
   x2="415.8078"
   y1="98.915901"
   x1="411.29019"
   gradientUnits="userSpaceOnUse"
   id="SVGID_18_">
		<stop
   id="stop30421"
   style="stop-color:#3C3C3C"
   offset="2.808990e-002" />
		<stop
   id="stop30423"
   style="stop-color:#2D2D2D"
   offset="6.179780e-002" />
		<stop
   id="stop30425"
   style="stop-color:#8F8F8F"
   offset="0.2183" />
		<stop
   id="stop30427"
   style="stop-color:#B8B8B8"
   offset="0.2921" />
		<stop
   id="stop30429"
   style="stop-color:#474747"
   offset="0.5169" />
		<stop
   id="stop30431"
   style="stop-color:#FFFFFF"
   offset="0.5787" />
		<stop
   id="stop30433"
   style="stop-color:#E9E9E9"
   offset="0.7809" />
		<stop
   id="stop30435"
   style="stop-color:#CCCCCC"
   offset="0.882" />
		<stop
   id="stop30437"
   style="stop-color:#8B8B8B"
   offset="0.9382" />
		<stop
   id="stop30439"
   style="stop-color:#606060"
   offset="1" />
	</linearGradient>
	
	
	
	<linearGradient
   y2="68.173302"
   x2="232.1097"
   y1="84.675301"
   x1="232.1097"
   gradientUnits="userSpaceOnUse"
   id="SVGID_19_">
		<stop
   id="stop30450"
   style="stop-color:#000000"
   offset="5.617980e-003" />
		<stop
   id="stop30452"
   style="stop-color:#00205F"
   offset="0.118" />
		<stop
   id="stop30454"
   style="stop-color:#00053F"
   offset="0.3315" />
		<stop
   id="stop30456"
   style="stop-color:#000747"
   offset="0.7584" />
		<stop
   id="stop30458"
   style="stop-color:#001E9F"
   offset="0.8989" />
		<stop
   id="stop30460"
   style="stop-color:#000000"
   offset="1" />
	</linearGradient>
	
	
	
		<linearGradient
   gradientTransform="matrix(-1,0,0,1,607.2266,0)"
   y2="68.173302"
   x2="312.10999"
   y1="84.675301"
   x1="312.10999"
   gradientUnits="userSpaceOnUse"
   id="SVGID_20_">
		<stop
   id="stop30469"
   style="stop-color:#000000"
   offset="5.617980e-003" />
		<stop
   id="stop30471"
   style="stop-color:#00205F"
   offset="0.118" />
		<stop
   id="stop30473"
   style="stop-color:#00053F"
   offset="0.3315" />
		<stop
   id="stop30475"
   style="stop-color:#000747"
   offset="0.7584" />
		<stop
   id="stop30477"
   style="stop-color:#001E9F"
   offset="0.8989" />
		<stop
   id="stop30479"
   style="stop-color:#000000"
   offset="1" />
	</linearGradient>
	
	
	<linearGradient
   y2="74.506798"
   x2="170.4585"
   y1="74.506798"
   x1="202.125"
   gradientUnits="userSpaceOnUse"
   id="SVGID_29_">
		<stop
   id="stop30622"
   style="stop-color:#DADADA"
   offset="0.1461" />
		<stop
   id="stop30624"
   style="stop-color:#666666"
   offset="1" />
	</linearGradient>
	
	
	
	
	
	
		<linearGradient
   gradientTransform="matrix(-1,0,0,1,708.084,0)"
   y2="74.506798"
   x2="349.45901"
   y1="74.506798"
   x1="381.125"
   gradientUnits="userSpaceOnUse"
   id="SVGID_30_">
		<stop
   id="stop30637"
   style="stop-color:#DADADA"
   offset="0.1461" />
		<stop
   id="stop30639"
   style="stop-color:#666666"
   offset="1" />
	</linearGradient>
	
	
	
	
	
	<linearGradient
   y2="53.756802"
   x2="134.3125"
   y1="66.006798"
   x1="134.3125"
   gradientUnits="userSpaceOnUse"
   id="SVGID_31_">
		<stop
   id="stop30652"
   style="stop-color:#B0B0B0"
   offset="2.808990e-002" />
		<stop
   id="stop30654"
   style="stop-color:#DCDCDC"
   offset="0.3258" />
		<stop
   id="stop30656"
   style="stop-color:#B5B5B5"
   offset="0.5787" />
		<stop
   id="stop30658"
   style="stop-color:#9D9D9D"
   offset="0.6798" />
		<stop
   id="stop30660"
   style="stop-color:#8B8B8B"
   offset="0.9382" />
	</linearGradient>
	
	
		<linearGradient
   gradientTransform="matrix(-1,0,0,1,802.625,0)"
   y2="53.756802"
   x2="408.3125"
   y1="66.006798"
   x1="408.3125"
   gradientUnits="userSpaceOnUse"
   id="SVGID_32_">
		<stop
   id="stop30665"
   style="stop-color:#B0B0B0"
   offset="2.808990e-002" />
		<stop
   id="stop30667"
   style="stop-color:#DCDCDC"
   offset="0.3258" />
		<stop
   id="stop30669"
   style="stop-color:#B5B5B5"
   offset="0.5787" />
		<stop
   id="stop30671"
   style="stop-color:#9D9D9D"
   offset="0.6798" />
		<stop
   id="stop30673"
   style="stop-color:#8B8B8B"
   offset="0.9382" />
	</linearGradient>
	

		
		<linearGradient
   id="SVGID_21_"
   gradientUnits="userSpaceOnUse"
   x1="282.29099"
   y1="78.128403"
   x2="282.29099"
   y2="72.732399">
			<stop
   offset="2.808990e-002"
   style="stop-color:#686868"
   id="stop30486" />
			<stop
   offset="0.3427"
   style="stop-color:#A1A1A1"
   id="stop30488" />
			<stop
   offset="0.5787"
   style="stop-color:#FFFFFF"
   id="stop30490" />
			<stop
   offset="0.7809"
   style="stop-color:#E9E9E9"
   id="stop30492" />
			<stop
   offset="0.9101"
   style="stop-color:#CCCCCC"
   id="stop30494" />
			<stop
   offset="1"
   style="stop-color:#8B8B8B"
   id="stop30496" />
		</linearGradient>
		
		
		<linearGradient
   id="SVGID_22_"
   gradientUnits="userSpaceOnUse"
   x1="231.7803"
   y1="78.128403"
   x2="231.7803"
   y2="72.732399">
			<stop
   offset="2.808990e-002"
   style="stop-color:#686868"
   id="stop30503" />
			<stop
   offset="0.3427"
   style="stop-color:#A1A1A1"
   id="stop30505" />
			<stop
   offset="0.5787"
   style="stop-color:#FFFFFF"
   id="stop30507" />
			<stop
   offset="0.7809"
   style="stop-color:#E9E9E9"
   id="stop30509" />
			<stop
   offset="0.9101"
   style="stop-color:#CCCCCC"
   id="stop30511" />
			<stop
   offset="1"
   style="stop-color:#8B8B8B"
   id="stop30513" />
		</linearGradient>
		
		
		<linearGradient
   id="SVGID_23_"
   gradientUnits="userSpaceOnUse"
   x1="257.44461"
   y1="78.128403"
   x2="257.44461"
   y2="72.732399">
			<stop
   offset="2.808990e-002"
   style="stop-color:#686868"
   id="stop30520" />
			<stop
   offset="0.3427"
   style="stop-color:#A1A1A1"
   id="stop30522" />
			<stop
   offset="0.5787"
   style="stop-color:#FFFFFF"
   id="stop30524" />
			<stop
   offset="0.7809"
   style="stop-color:#E9E9E9"
   id="stop30526" />
			<stop
   offset="0.9101"
   style="stop-color:#CCCCCC"
   id="stop30528" />
			<stop
   offset="1"
   style="stop-color:#8B8B8B"
   id="stop30530" />
		</linearGradient>
		
		
		<linearGradient
   id="SVGID_24_"
   gradientUnits="userSpaceOnUse"
   x1="294.26419"
   y1="78.128403"
   x2="294.26419"
   y2="72.732399">
			<stop
   offset="2.808990e-002"
   style="stop-color:#686868"
   id="stop30537" />
			<stop
   offset="0.3427"
   style="stop-color:#A1A1A1"
   id="stop30539" />
			<stop
   offset="0.5787"
   style="stop-color:#FFFFFF"
   id="stop30541" />
			<stop
   offset="0.7809"
   style="stop-color:#E9E9E9"
   id="stop30543" />
			<stop
   offset="0.9101"
   style="stop-color:#CCCCCC"
   id="stop30545" />
			<stop
   offset="1"
   style="stop-color:#8B8B8B"
   id="stop30547" />
		</linearGradient>
		
		
		<linearGradient
   id="SVGID_25_"
   gradientUnits="userSpaceOnUse"
   x1="269.34711"
   y1="78.361298"
   x2="269.34711"
   y2="72.493103">
			<stop
   offset="2.808990e-002"
   style="stop-color:#686868"
   id="stop30554" />
			<stop
   offset="0.3427"
   style="stop-color:#A1A1A1"
   id="stop30556" />
			<stop
   offset="0.5787"
   style="stop-color:#FFFFFF"
   id="stop30558" />
			<stop
   offset="0.7809"
   style="stop-color:#E9E9E9"
   id="stop30560" />
			<stop
   offset="0.9101"
   style="stop-color:#CCCCCC"
   id="stop30562" />
			<stop
   offset="1"
   style="stop-color:#8B8B8B"
   id="stop30564" />
		</linearGradient>
		
		
		<linearGradient
   id="SVGID_26_"
   gradientUnits="userSpaceOnUse"
   x1="218.3125"
   y1="78.361298"
   x2="218.3125"
   y2="72.503403">
			<stop
   offset="2.808990e-002"
   style="stop-color:#686868"
   id="stop30571" />
			<stop
   offset="0.3427"
   style="stop-color:#A1A1A1"
   id="stop30573" />
			<stop
   offset="0.5787"
   style="stop-color:#FFFFFF"
   id="stop30575" />
			<stop
   offset="0.7809"
   style="stop-color:#E9E9E9"
   id="stop30577" />
			<stop
   offset="0.9101"
   style="stop-color:#CCCCCC"
   id="stop30579" />
			<stop
   offset="1"
   style="stop-color:#8B8B8B"
   id="stop30581" />
		</linearGradient>
		
		
		<linearGradient
   id="SVGID_27_"
   gradientUnits="userSpaceOnUse"
   x1="245.9738"
   y1="78.128403"
   x2="245.9738"
   y2="72.6493">
			<stop
   offset="2.808990e-002"
   style="stop-color:#686868"
   id="stop30588" />
			<stop
   offset="0.3427"
   style="stop-color:#A1A1A1"
   id="stop30590" />
			<stop
   offset="0.5787"
   style="stop-color:#FFFFFF"
   id="stop30592" />
			<stop
   offset="0.7809"
   style="stop-color:#E9E9E9"
   id="stop30594" />
			<stop
   offset="0.9101"
   style="stop-color:#CCCCCC"
   id="stop30596" />
			<stop
   offset="1"
   style="stop-color:#8B8B8B"
   id="stop30598" />
		</linearGradient>
		
		
		<linearGradient
   id="SVGID_28_"
   gradientUnits="userSpaceOnUse"
   x1="307.28909"
   y1="78.128403"
   x2="307.28909"
   y2="72.6493">
			<stop
   offset="2.808990e-002"
   style="stop-color:#686868"
   id="stop30605" />
			<stop
   offset="0.3427"
   style="stop-color:#A1A1A1"
   id="stop30607" />
			<stop
   offset="0.5787"
   style="stop-color:#FFFFFF"
   id="stop30609" />
			<stop
   offset="0.7809"
   style="stop-color:#E9E9E9"
   id="stop30611" />
			<stop
   offset="0.9101"
   style="stop-color:#CCCCCC"
   id="stop30613" />
			<stop
   offset="1"
   style="stop-color:#8B8B8B"
   id="stop30615" />
		</linearGradient>
		
	
		
	
		
	
		<linearGradient
   id="SVGID_9_"
   gradientUnits="userSpaceOnUse"
   x1="352.14111"
   y1="26.278299"
   x2="352.14111"
   y2="1.1176">
			<stop
   offset="2.808990e-002"
   style="stop-color:#3C3C3C"
   id="stop30240" />
			<stop
   offset="6.179780e-002"
   style="stop-color:#2D2D2D"
   id="stop30242" />
			<stop
   offset="0.2362"
   style="stop-color:#787878"
   id="stop30244" />
			<stop
   offset="0.3427"
   style="stop-color:#A1A1A1"
   id="stop30246" />
			<stop
   offset="0.5787"
   style="stop-color:#FFFFFF"
   id="stop30248" />
			<stop
   offset="0.7809"
   style="stop-color:#E9E9E9"
   id="stop30250" />
			<stop
   offset="0.9101"
   style="stop-color:#CCCCCC"
   id="stop30252" />
			<stop
   offset="1"
   style="stop-color:#8B8B8B"
   id="stop30254" />
		</linearGradient>
		
		<linearGradient
   id="SVGID_10_"
   gradientUnits="userSpaceOnUse"
   x1="116.613"
   y1="26.278299"
   x2="116.613"
   y2="1.1176">
			<stop
   offset="2.808990e-002"
   style="stop-color:#3C3C3C"
   id="stop30259" />
			<stop
   offset="6.179780e-002"
   style="stop-color:#2D2D2D"
   id="stop30261" />
			<stop
   offset="0.2362"
   style="stop-color:#787878"
   id="stop30263" />
			<stop
   offset="0.3427"
   style="stop-color:#A1A1A1"
   id="stop30265" />
			<stop
   offset="0.5787"
   style="stop-color:#FFFFFF"
   id="stop30267" />
			<stop
   offset="0.7809"
   style="stop-color:#E9E9E9"
   id="stop30269" />
			<stop
   offset="0.9101"
   style="stop-color:#CCCCCC"
   id="stop30271" />
			<stop
   offset="1"
   style="stop-color:#8B8B8B"
   id="stop30273" />
		</linearGradient>
		
		<linearGradient
   id="SVGID_11_"
   gradientUnits="userSpaceOnUse"
   x1="236.2827"
   y1="26.278299"
   x2="236.2827"
   y2="1.1176">
			<stop
   offset="2.808990e-002"
   style="stop-color:#3C3C3C"
   id="stop30278" />
			<stop
   offset="6.179780e-002"
   style="stop-color:#2D2D2D"
   id="stop30280" />
			<stop
   offset="0.2362"
   style="stop-color:#787878"
   id="stop30282" />
			<stop
   offset="0.3427"
   style="stop-color:#A1A1A1"
   id="stop30284" />
			<stop
   offset="0.5787"
   style="stop-color:#FFFFFF"
   id="stop30286" />
			<stop
   offset="0.7809"
   style="stop-color:#E9E9E9"
   id="stop30288" />
			<stop
   offset="0.9101"
   style="stop-color:#CCCCCC"
   id="stop30290" />
			<stop
   offset="1"
   style="stop-color:#8B8B8B"
   id="stop30292" />
		</linearGradient>
		
		<linearGradient
   id="SVGID_12_"
   gradientUnits="userSpaceOnUse"
   x1="407.96881"
   y1="26.278299"
   x2="407.96881"
   y2="1.1176">
			<stop
   offset="2.808990e-002"
   style="stop-color:#3C3C3C"
   id="stop30297" />
			<stop
   offset="6.179780e-002"
   style="stop-color:#2D2D2D"
   id="stop30299" />
			<stop
   offset="0.2362"
   style="stop-color:#787878"
   id="stop30301" />
			<stop
   offset="0.3427"
   style="stop-color:#A1A1A1"
   id="stop30303" />
			<stop
   offset="0.5787"
   style="stop-color:#FFFFFF"
   id="stop30305" />
			<stop
   offset="0.7809"
   style="stop-color:#E9E9E9"
   id="stop30307" />
			<stop
   offset="0.9101"
   style="stop-color:#CCCCCC"
   id="stop30309" />
			<stop
   offset="1"
   style="stop-color:#8B8B8B"
   id="stop30311" />
		</linearGradient>
		
		<linearGradient
   id="SVGID_13_"
   gradientUnits="userSpaceOnUse"
   x1="291.78171"
   y1="27.3652"
   x2="291.78171"
   y2="6.8212103e-11">
			<stop
   offset="2.808990e-002"
   style="stop-color:#3C3C3C"
   id="stop30316" />
			<stop
   offset="6.179780e-002"
   style="stop-color:#2D2D2D"
   id="stop30318" />
			<stop
   offset="0.2362"
   style="stop-color:#787878"
   id="stop30320" />
			<stop
   offset="0.3427"
   style="stop-color:#A1A1A1"
   id="stop30322" />
			<stop
   offset="0.5787"
   style="stop-color:#FFFFFF"
   id="stop30324" />
			<stop
   offset="0.7809"
   style="stop-color:#E9E9E9"
   id="stop30326" />
			<stop
   offset="0.9101"
   style="stop-color:#CCCCCC"
   id="stop30328" />
			<stop
   offset="1"
   style="stop-color:#8B8B8B"
   id="stop30330" />
		</linearGradient>
		
		<linearGradient
   id="SVGID_14_"
   gradientUnits="userSpaceOnUse"
   x1="53.813702"
   y1="27.3652"
   x2="53.813702"
   y2="0.051199999">
			<stop
   offset="2.808990e-002"
   style="stop-color:#3C3C3C"
   id="stop30335" />
			<stop
   offset="6.179780e-002"
   style="stop-color:#2D2D2D"
   id="stop30337" />
			<stop
   offset="0.2362"
   style="stop-color:#787878"
   id="stop30339" />
			<stop
   offset="0.3427"
   style="stop-color:#A1A1A1"
   id="stop30341" />
			<stop
   offset="0.5787"
   style="stop-color:#FFFFFF"
   id="stop30343" />
			<stop
   offset="0.7809"
   style="stop-color:#E9E9E9"
   id="stop30345" />
			<stop
   offset="0.9101"
   style="stop-color:#CCCCCC"
   id="stop30347" />
			<stop
   offset="1"
   style="stop-color:#8B8B8B"
   id="stop30349" />
		</linearGradient>
		
		<linearGradient
   id="SVGID_15_"
   gradientUnits="userSpaceOnUse"
   x1="182.7946"
   y1="26.278299"
   x2="182.7946"
   y2="0.72960001">
			<stop
   offset="2.808990e-002"
   style="stop-color:#3C3C3C"
   id="stop30354" />
			<stop
   offset="6.179780e-002"
   style="stop-color:#2D2D2D"
   id="stop30356" />
			<stop
   offset="0.2362"
   style="stop-color:#787878"
   id="stop30358" />
			<stop
   offset="0.3427"
   style="stop-color:#A1A1A1"
   id="stop30360" />
			<stop
   offset="0.5787"
   style="stop-color:#FFFFFF"
   id="stop30362" />
			<stop
   offset="0.7809"
   style="stop-color:#E9E9E9"
   id="stop30364" />
			<stop
   offset="0.9101"
   style="stop-color:#CCCCCC"
   id="stop30366" />
			<stop
   offset="1"
   style="stop-color:#8B8B8B"
   id="stop30368" />
		</linearGradient>
		
		<linearGradient
   id="SVGID_16_"
   gradientUnits="userSpaceOnUse"
   x1="468.69919"
   y1="26.278299"
   x2="468.69919"
   y2="0.72960001">
			<stop
   offset="2.808990e-002"
   style="stop-color:#3C3C3C"
   id="stop30373" />
			<stop
   offset="6.179780e-002"
   style="stop-color:#2D2D2D"
   id="stop30375" />
			<stop
   offset="0.2362"
   style="stop-color:#787878"
   id="stop30377" />
			<stop
   offset="0.3427"
   style="stop-color:#A1A1A1"
   id="stop30379" />
			<stop
   offset="0.5787"
   style="stop-color:#FFFFFF"
   id="stop30381" />
			<stop
   offset="0.7809"
   style="stop-color:#E9E9E9"
   id="stop30383" />
			<stop
   offset="0.9101"
   style="stop-color:#CCCCCC"
   id="stop30385" />
			<stop
   offset="1"
   style="stop-color:#8B8B8B"
   id="stop30387" />
		</linearGradient>
		
	
		<linearGradient
   id="SVGID_1_"
   gradientUnits="userSpaceOnUse"
   x1="352.14111"
   y1="24.847601"
   x2="352.14111"
   y2="1.2964">
			<stop
   offset="0"
   style="stop-color:#FFFFFF"
   id="stop30150" />
			<stop
   offset="0.2528"
   style="stop-color:#1E1E1E"
   id="stop30152" />
			<stop
   offset="0.6629"
   style="stop-color:#C7C7C7"
   id="stop30154" />
			<stop
   offset="0.8989"
   style="stop-color:#C7C7C7"
   id="stop30156" />
		</linearGradient>
		
		<linearGradient
   id="SVGID_2_"
   gradientUnits="userSpaceOnUse"
   x1="116.613"
   y1="24.847601"
   x2="116.613"
   y2="1.2964">
			<stop
   offset="0"
   style="stop-color:#FFFFFF"
   id="stop30161" />
			<stop
   offset="0.2528"
   style="stop-color:#1E1E1E"
   id="stop30163" />
			<stop
   offset="0.6629"
   style="stop-color:#C7C7C7"
   id="stop30165" />
			<stop
   offset="0.8989"
   style="stop-color:#C7C7C7"
   id="stop30167" />
		</linearGradient>
		
		<linearGradient
   id="SVGID_3_"
   gradientUnits="userSpaceOnUse"
   x1="236.2708"
   y1="24.847601"
   x2="236.2708"
   y2="1.2153">
			<stop
   offset="0"
   style="stop-color:#FFFFFF"
   id="stop30172" />
			<stop
   offset="0.2528"
   style="stop-color:#1E1E1E"
   id="stop30174" />
			<stop
   offset="0.6629"
   style="stop-color:#C7C7C7"
   id="stop30176" />
			<stop
   offset="0.8989"
   style="stop-color:#C7C7C7"
   id="stop30178" />
		</linearGradient>
		
		<linearGradient
   id="SVGID_4_"
   gradientUnits="userSpaceOnUse"
   x1="407.96881"
   y1="24.847601"
   x2="407.96881"
   y2="1.2964">
			<stop
   offset="0"
   style="stop-color:#FFFFFF"
   id="stop30183" />
			<stop
   offset="0.2528"
   style="stop-color:#1E1E1E"
   id="stop30185" />
			<stop
   offset="0.6629"
   style="stop-color:#C7C7C7"
   id="stop30187" />
			<stop
   offset="0.8989"
   style="stop-color:#C7C7C7"
   id="stop30189" />
		</linearGradient>
		
		<linearGradient
   id="SVGID_5_"
   gradientUnits="userSpaceOnUse"
   x1="291.78171"
   y1="25.8652"
   x2="291.78171"
   y2="0.25">
			<stop
   offset="0"
   style="stop-color:#FFFFFF"
   id="stop30194" />
			<stop
   offset="0.2528"
   style="stop-color:#1E1E1E"
   id="stop30196" />
			<stop
   offset="0.6629"
   style="stop-color:#C7C7C7"
   id="stop30198" />
			<stop
   offset="0.8989"
   style="stop-color:#C7C7C7"
   id="stop30200" />
		</linearGradient>
		
		<linearGradient
   id="SVGID_6_"
   gradientUnits="userSpaceOnUse"
   x1="53.813702"
   y1="25.8652"
   x2="53.813702"
   y2="0.2978">
			<stop
   offset="0"
   style="stop-color:#FFFFFF"
   id="stop30205" />
			<stop
   offset="0.2528"
   style="stop-color:#1E1E1E"
   id="stop30207" />
			<stop
   offset="0.6629"
   style="stop-color:#C7C7C7"
   id="stop30209" />
			<stop
   offset="0.8989"
   style="stop-color:#C7C7C7"
   id="stop30211" />
		</linearGradient>
		
		<linearGradient
   id="SVGID_7_"
   gradientUnits="userSpaceOnUse"
   x1="182.7946"
   y1="26.278299"
   x2="182.7946"
   y2="0.93279999">
			<stop
   offset="0"
   style="stop-color:#FFFFFF"
   id="stop30216" />
			<stop
   offset="0.2528"
   style="stop-color:#1E1E1E"
   id="stop30218" />
			<stop
   offset="0.6629"
   style="stop-color:#C7C7C7"
   id="stop30220" />
			<stop
   offset="0.8989"
   style="stop-color:#C7C7C7"
   id="stop30222" />
		</linearGradient>
		
		<linearGradient
   id="SVGID_8_"
   gradientUnits="userSpaceOnUse"
   x1="468.69919"
   y1="26.278299"
   x2="468.69919"
   y2="0.93279999">
			<stop
   offset="0"
   style="stop-color:#FFFFFF"
   id="stop30227" />
			<stop
   offset="0.2528"
   style="stop-color:#1E1E1E"
   id="stop30229" />
			<stop
   offset="0.6629"
   style="stop-color:#C7C7C7"
   id="stop30231" />
			<stop
   offset="0.8989"
   style="stop-color:#C7C7C7"
   id="stop30233" />
		</linearGradient>
		
	
		
		
		
		
		
		
		
		
	<linearGradient
   inkscape:collect="always"
   xlink:href="#SVGID_17_"
   id="linearGradient13711"
   gradientUnits="userSpaceOnUse"
   x1="131.2917"
   y1="98.916"
   x2="135.8092"
   y2="47.280102" /><linearGradient
   inkscape:collect="always"
   xlink:href="#SVGID_19_"
   id="linearGradient13713"
   gradientUnits="userSpaceOnUse"
   x1="232.1097"
   y1="84.675301"
   x2="232.1097"
   y2="68.173302" /></defs><sodipodi:namedview
   pagecolor="#ffffff"
   bordercolor="#666666"
   borderopacity="1"
   objecttolerance="10"
   gridtolerance="10"
   guidetolerance="10"
   inkscape:pageopacity="0"
   inkscape:pageshadow="2"
   inkscape:window-width="1366"
   inkscape:window-height="705"
   id="namedview30681"
   showgrid="false"
   inkscape:zoom="1"
   inkscape:cx="549.48164"
   inkscape:cy="60.393705"
   inkscape:window-x="-8"
   inkscape:window-y="-8"
   inkscape:window-maximized="1"
   inkscape:current-layer="layer7"
   inkscape:document-rotation="0"
   inkscape:snap-page="false"
   inkscape:snap-bbox="false"
   inkscape:bbox-nodes="true" />


<g
   inkscape:groupmode="layer"
   id="layer7"
   inkscape:label="Layer 1"
   transform="translate(-81.540348,-16.665265)"><g
     id="g31318"
     transform="matrix(1.0433678,0,0,1.0433678,81.154457,16.560928)"><path
       inkscape:connector-curvature="0"
       id="polyline30132"
       d="m 331.5,27.3 h 41.3 V 22.6 H 344.1 V 2.1 h -12.6 v 25.2"
       style="fill:#231f20" /><path
       style="fill:#231f20"
       inkscape:connector-curvature="0"
       id="path30134"
       d="m 93,2.1 v 25.2 h 12.7 c 0,0 0,-10 0,-10.3 0.3,0 21.7,0 22,0 0,0.3 0,10.3 0,10.3 h 12.6 V 2.1 h -12.6 c 0,0 0,9.9 0,10.2 -0.3,0 -21.7,0 -22,0 0,-0.3 0,-10.2 0,-10.2 H 93" /><path
       style="fill:#231f20"
       inkscape:connector-curvature="0"
       id="path30136"
       d="M 251.3,2.1 239.5,12.7 227.4,2.1 212.7,1.1 v 1 c 0,0 17.8,14.8 17.9,14.9 0,0.1 0,10.2 0,10.2 h 12.6 c 0,0 0,-10.3 0,-10.5 C 243.3,16.6 259.8,2 259.8,2 V 1 l -8.5,1.1" /><path
       inkscape:connector-curvature="0"
       id="polyline30138"
       d="M 386.9,27.3 H 429 V 23 h -29.5 v -6.4 h 28.4 V 12.4 H 399.5 V 6.3 h 29 V 2.1 h -41.6 v 25.2"
       style="fill:#231f20" /><path
       style="fill:#231f20"
       inkscape:connector-curvature="0"
       id="path30140"
       d="m 270.3,8.7 c 0,5.8 6.7,7.2 15.9,8.4 9.4,1.2 13.7,1.5 13.7,3.7 0,2 -2.8,3 -10.8,3 -9.2,0 -16.9,-2.3 -17.9,-2.5 0,0.2 -0.9,2.8 -1.2,4.3 -0.1,0.5 0,1 0,1 1.3,0.3 8.5,2 19.6,2 12.2,0 23.9,-2.1 23.9,-8.7 0,-4.5 -4.8,-6.9 -18.4,-8.4 -5.6,-0.7 -11.5,-1.1 -11.5,-3.2 0,-1.6 1.6,-2.4 9.7,-2.4 8,0 14.6,1.7 15.7,2 L 310,2 C 308.6,1.8 300.7,1.3 290.2,1.3 281.6,1 270.3,2.2 270.3,8.7" /><path
       style="fill:#231f20"
       inkscape:connector-curvature="0"
       id="path30142"
       d="m 32.4,14.7 c 0,8.1 8.6,13.7 26.3,13.7 6.9,0 14.1,-1 15.3,-1.2 l 1.1,-6.3 C 73.6,21.1 67.7,23 61.3,23 51.4,23 44.8,20.6 44.8,14.7 c 0,-5.8 6.3,-8.3 16.7,-8.3 5.9,0 12.1,0.8 13.6,1.1 v -1 L 74,2.2 C 72.3,2 66,1.1 59.1,1.1 41.1,1.1 32.4,6.4 32.4,14.7" /><path
       style="fill:#231f20"
       inkscape:connector-curvature="0"
       id="path30144"
       d="m 159.8,27.3 h 12.6 V 6.6 c 1.7,-0.1 3.7,-0.3 6.6,-0.3 3.1,0 5.3,0.1 7.1,0.3 3.9,0.6 5.1,1.8 5.1,3.5 0,1.7 -1.7,3.3 -5.6,3.8 -2.5,0.3 -4.3,0.4 -6.5,0.4 -1.1,0 -3.8,-1.1 -3.8,-1.1 v 1 l 14.4,13.1 h 16.1 v -1 l -14.6,-9.5 c 2.9,-0.2 3.9,-0.3 6.8,-1.2 3.9,-1.2 5.8,-3.2 5.8,-5.5 0,-2.9 -1.9,-5.5 -8.9,-7.1 C 191,2.1 186,1.7 179.3,1.7 c -9.1,0 -18.5,0.4 -19.4,0.4 -0.1,0.1 -0.1,25.2 -0.1,25.2" /><path
       style="fill:#231f20"
       inkscape:connector-curvature="0"
       id="path30146"
       d="m 445.7,27.3 h 12.6 V 6.6 c 1.7,-0.1 3.6,-0.3 6.6,-0.3 3.1,0 5.3,0.1 7.1,0.3 3.8,0.6 5.1,1.8 5,3.5 0,1.7 -1.7,3.3 -5.6,3.8 -2.5,0.3 -4.3,0.4 -6.5,0.4 -1.1,0 -3.8,-1.1 -3.8,-1.1 v 1 l 14.4,13.1 h 16.1 v -1 L 477,16.8 c 2.9,-0.2 3.9,-0.3 6.8,-1.2 3.8,-1.2 5.7,-3.2 5.8,-5.5 0,-2.9 -1.9,-5.5 -9,-7.1 -3.9,-0.9 -8.9,-1.3 -15.6,-1.3 -9.1,0 -18.5,0.4 -19.4,0.4 0.1,0.1 0.1,25.2 0.1,25.2" /><path
       inkscape:connector-curvature="0"
       id="polyline30159"
       d="m 331.5,24.8 h 41.3 V 20.4 H 344.1 V 1.3 h -12.6 v 23.5"
       style="fill:url(#SVGID_1_)" /><path
       inkscape:connector-curvature="0"
       style="fill:url(#SVGID_2_)"
       id="path30170"
       d="m 93,1.3 v 23.6 h 12.7 c 0,0 0,-9.3 0,-9.6 0.3,0 21.7,0 22,0 0,0.3 0,9.6 0,9.6 h 12.6 V 1.3 h -12.6 c 0,0 0,9.3 0,9.6 -0.3,0 -21.7,0 -22,0 0,-0.3 0,-9.6 0,-9.6 H 93" /><path
       inkscape:connector-curvature="0"
       style="fill:url(#SVGID_3_)"
       id="path30181"
       d="M 251.3,1.3 239.5,11.2 227.3,1.3 212.7,1.2 c 0,0 17.7,14 17.8,14 0,0.1 0,9.6 0,9.6 h 12.6 c 0,0 0,-9.7 0,-9.8 0.1,-0.1 16.5,-13.8 16.5,-13.8 l -8.3,0.1" /><path
       inkscape:connector-curvature="0"
       id="polyline30192"
       d="M 386.9,24.8 H 429 v -3.9 h -29.5 v -6 h 28.4 v -4 H 399.5 V 5.3 h 29 v -4 h -41.6 v 23.5"
       style="fill:url(#SVGID_4_)" /><path
       inkscape:connector-curvature="0"
       style="fill:url(#SVGID_5_)"
       id="path30203"
       d="m 270.3,7.4 c 0,5.4 6.7,6.8 15.9,7.8 9.4,1.1 13.7,1.4 13.7,3.4 0,1.8 -2.8,2.8 -10.8,2.8 -9.2,0 -16.9,-2.1 -17.9,-2.4 -0.1,0.2 -1.2,6.3 -1.2,6.3 1.3,0.3 8.5,0.5 19.6,0.5 12.2,0 23.9,-2 23.9,-8.2 0,-4.2 -4.8,-6.4 -18.4,-7.9 -5.6,-0.6 -11.5,-1 -11.5,-3 0,-1.5 1.6,-2.2 9.7,-2.2 8,0 14.6,1.6 15.7,1.8 l 1,-4.6 c -1.4,-0.2 -9.3,-1.6 -19.8,-1.6 -8.6,0.2 -19.9,1.3 -19.9,7.3" /><path
       inkscape:connector-curvature="0"
       style="fill:url(#SVGID_6_)"
       id="path30214"
       d="m 32.4,13.1 c 0,7.6 8.6,12.8 26.3,12.8 6.9,0 14.1,-0.9 15.3,-1.1 L 75.1,21 v -1.1 c -1.5,0.1 -7.4,1 -13.8,1 -9.9,0 -16.5,-2.2 -16.5,-7.7 0,-5.4 6.3,-7.8 16.7,-7.8 5.9,0 12.1,0.8 13.6,1 L 74,1.5 C 72.2,1.3 65.9,0.4 59,0.4 41.1,0.3 32.4,5.3 32.4,13.1" /><path
       inkscape:connector-curvature="0"
       style="fill:url(#SVGID_7_)"
       id="path30225"
       d="m 159.8,24.8 h 12.6 V 5.5 c 1.7,-0.1 3.7,-0.3 6.6,-0.3 3.1,0 5.3,0.1 7.1,0.3 3.9,0.6 5.1,1.7 5.1,3.3 0,1.6 -1.7,3.1 -5.6,3.6 -2.5,0.3 -4.3,0.4 -6.5,0.4 -1.3,0 -2.3,0 -3.8,-0.1 v 0.6 l 14.4,11.6 16.1,1.4 V 24.9 L 191.2,15 c 2.9,-0.2 3.9,-0.3 6.8,-1.2 3.9,-1.2 5.8,-3 5.8,-5.1 0,-2.7 -1.9,-5.1 -8.9,-6.6 C 191,1.3 186,0.9 179.3,0.9 c -9.1,0 -18.5,0.3 -19.4,0.4 -0.1,0 -0.1,23.5 -0.1,23.5" /><path
       inkscape:connector-curvature="0"
       style="fill:url(#SVGID_8_)"
       id="path30236"
       d="m 445.7,24.8 h 12.6 V 5.5 c 1.7,-0.1 3.6,-0.3 6.6,-0.3 3.1,0 5.3,0.1 7.1,0.3 3.8,0.6 5.1,1.7 5,3.3 0,1.6 -1.7,3.1 -5.6,3.6 -2.5,0.3 -4.3,0.4 -6.5,0.4 -1.3,0 -2.3,0 -3.8,-0.1 v 0.6 l 14.4,11.6 16.1,1.4 V 24.9 L 477.1,15 c 2.9,-0.2 3.9,-0.3 6.8,-1.2 3.8,-1.2 5.7,-3 5.8,-5.1 0,-2.7 -1.9,-5.1 -9,-6.6 -3.9,-0.8 -8.9,-1.2 -15.6,-1.2 -9.1,0 -18.5,0.3 -19.4,0.4 0,0 0,23.5 0,23.5" /><path
       inkscape:connector-curvature="0"
       id="polyline30257"
       d="m 331.5,26.3 h 41.3 V 21.6 H 344.1 V 1.1 h -12.6 v 25.2"
       style="fill:url(#SVGID_9_)" /><path
       inkscape:connector-curvature="0"
       style="fill:url(#SVGID_10_)"
       id="path30276"
       d="m 93,1.1 v 25.2 h 12.7 c 0,0 0,-10 0,-10.3 0.3,0 21.7,0 22,0 0,0.3 0,10.3 0,10.3 h 12.6 V 1.1 h -12.6 c 0,0 0,9.9 0,10.2 -0.3,0 -21.7,0 -22,0 0,-0.3 0,-10.2 0,-10.2 H 93" /><path
       inkscape:connector-curvature="0"
       style="fill:url(#SVGID_11_)"
       id="path30295"
       d="M 251.3,1.1 239.5,11.7 227.4,1.1 h -14.7 c 0,0 17.8,14.8 17.9,14.9 0,0.1 0,10.2 0,10.2 h 12.6 c 0,0 0,-10.3 0,-10.5 C 243.3,15.6 259.8,1 259.8,1 h -8.5" /><path
       inkscape:connector-curvature="0"
       id="polyline30314"
       d="M 386.9,26.3 H 429 V 22 h -29.5 v -6.4 h 28.4 V 11.4 H 399.5 V 5.3 h 29 V 1.1 h -41.6 v 25.2"
       style="fill:url(#SVGID_12_)" /><path
       inkscape:connector-curvature="0"
       style="fill:url(#SVGID_13_)"
       id="path30333"
       d="m 270.3,7.7 c 0,5.8 6.7,7.2 15.9,8.4 9.4,1.2 13.7,1.5 13.7,3.7 0,2 -2.8,3 -10.8,3 -9.2,0 -16.9,-2.3 -17.9,-2.5 -0.1,0.2 -1.2,5.3 -1.2,5.3 1.3,0.3 8.5,2 19.6,2 12.2,0 23.9,-2.1 23.9,-8.7 0,-4.5 -4.8,-6.9 -18.4,-8.4 -5.6,-0.7 -11.5,-1.1 -11.5,-3.2 0,-1.6 1.6,-2.4 9.7,-2.4 8,0 14.6,1.7 15.7,2 L 310,2 C 308.6,1.8 300.7,0.3 290.2,0.3 281.6,0 270.3,1.2 270.3,7.7" /><path
       inkscape:connector-curvature="0"
       style="fill:url(#SVGID_14_)"
       id="path30352"
       d="m 32.4,13.7 c 0,8.1 8.6,13.7 26.3,13.7 6.9,0 14.1,-1 15.3,-1.2 l 1.1,-5.3 C 73.6,21.1 67.7,22 61.3,22 51.4,22 44.8,19.6 44.8,13.7 c 0,-5.8 6.3,-8.3 16.7,-8.3 5.9,0 12.1,0.8 13.6,1.1 L 74,1.2 C 72.3,1 66,0.1 59.1,0.1 41.1,0.1 32.4,5.4 32.4,13.7" /><path
       inkscape:connector-curvature="0"
       style="fill:url(#SVGID_15_)"
       id="path30371"
       d="m 159.8,26.3 h 12.6 V 5.6 c 1.7,-0.1 3.7,-0.3 6.6,-0.3 3.1,0 5.3,0.1 7.1,0.3 3.9,0.6 5.1,1.8 5.1,3.5 0,1.7 -1.7,3.3 -5.6,3.8 -2.5,0.3 -4.3,0.4 -6.5,0.4 -1.3,0 -2.3,0 -3.8,-0.1 l 14.4,13.1 h 16.1 L 191.2,15.8 c 2.9,-0.2 3.9,-0.3 6.8,-1.2 3.9,-1.2 5.8,-3.2 5.8,-5.5 0,-2.9 -1.9,-5.5 -8.9,-7.1 C 191,1.1 186,0.7 179.3,0.7 c -9.1,0 -18.5,0.4 -19.4,0.4 -0.1,0.1 -0.1,25.2 -0.1,25.2" /><path
       inkscape:connector-curvature="0"
       style="fill:url(#SVGID_16_)"
       id="path30390"
       d="m 445.7,26.3 h 12.6 V 5.6 c 1.7,-0.1 3.6,-0.3 6.6,-0.3 3.1,0 5.3,0.1 7.1,0.3 3.8,0.6 5.1,1.8 5,3.5 0,1.7 -1.7,3.3 -5.6,3.8 -2.5,0.3 -4.3,0.4 -6.5,0.4 -1.3,0 -2.3,0 -3.8,-0.1 l 14.4,13.1 h 16.1 L 477,15.8 c 2.9,-0.2 3.9,-0.3 6.8,-1.2 3.8,-1.2 5.7,-3.2 5.8,-5.5 0,-2.9 -1.9,-5.5 -9,-7.1 -3.9,-0.9 -8.9,-1.3 -15.6,-1.3 -9.1,0 -18.5,0.4 -19.4,0.4 0.1,0.1 0.1,25.2 0.1,25.2" /><path
       d="m 265.3,103.4 c -6.2,-0.3 -16.4,0.7 -19.4,1.9 -3.4,1.4 -4.5,2.3 -12.9,2.3 -8.4,0 -24.9,-2.3 -24.9,-2.3 0,0 -175.2,-26.8 -180,-28.4 C 23.3,75.3 17.5,72.1 10.8,68.1 4.1,64.1 0.5,60.5 0.5,57.9 0.5,55.3 4.6,54.6 4.6,54.6 L 198,53.4 c 0,0 8,-0.3 10.7,0.3 2.7,0.7 14.4,6 18,6.7 8.7,1.7 38.7,1 38.7,1"
       id="path30417"
       style="fill:url(#linearGradient13711);stroke:#b8b8b8"
       inkscape:connector-curvature="0" /><path
       d="m 33.1,63 120.1,2 c 0,0 3.8,0.2 6.4,0.9 2.6,0.7 5.3,2.7 5.3,2.7 h 30.4 c 0,0 -10.4,0.3 -11.3,0.7 -0.9,0.4 -0.3,0.7 -0.3,0.7 h -21.9 l 0.9,0.9 6.6,0.9 5,4.1 h 24 c 0,0 -4.6,0.9 -5.4,1.6 -0.9,0.7 -0.9,0.7 -0.9,0.7 h -18 c 0,0 0.6,1 3.1,1.1 2.6,0.1 2.9,0.7 4,1 1.1,0.3 6.3,4.7 16.7,7.7 10.4,3 29,6.1 29,6.1 0,0 -26.9,-0.6 -38.6,-5.6 -11.7,-5 -27.6,-16.6 -31.1,-18 -3.6,-1.4 -7.3,-1 -7.3,-1 0,0 -81.6,-3.3 -90.9,-4 C 49.6,64.9 33.1,63 33.1,63 Z"
       id="path30419"
       inkscape:connector-curvature="0"
       style="fill:#191919" /><path
       d="m 263.7,103.4 c 6.2,-0.3 16.4,0.7 19.4,1.9 3.4,1.4 4.5,2.3 12.9,2.3 8.4,0 24.9,-2.3 24.9,-2.3 0,0 175.3,-26.8 180,-28.4 4.7,-1.6 10.6,-4.8 17.3,-8.8 6.7,-4 10.4,-7.6 10.4,-10.3 0,-2.7 -4.1,-3.3 -4.1,-3.3 L 331,53.4 c 0,0 -8,-0.3 -10.7,0.3 -2.7,0.7 -14.4,6 -18,6.7 -8.7,1.7 -38.7,1 -38.7,1"
       id="path30442"
       style="fill:url(#SVGID_18_);stroke:#b8b8b8"
       inkscape:connector-curvature="0" /><path
       d="m 495.9,63 -120.1,2 c 0,0 -3.8,0.2 -6.4,0.9 -2.6,0.7 -5.3,2.7 -5.3,2.7 h -30.4 c 0,0 10.4,0.3 11.3,0.7 0.9,0.4 0.3,0.7 0.3,0.7 h 21.9 l -0.9,0.9 -6.6,0.9 -5,4.1 h -24 c 0,0 4.6,0.9 5.4,1.6 0.9,0.7 0.9,0.7 0.9,0.7 h 18 c 0,0 -0.6,1 -3.1,1.1 -2.6,0.1 -2.9,0.7 -4,1 -1.1,0.3 -6.3,4.7 -16.7,7.7 -10.4,3 -29,6.1 -29,6.1 0,0 26.9,-0.6 38.6,-5.6 11.7,-5 27.6,-16.6 31.1,-18 3.6,-1.4 7.3,-1 7.3,-1 0,0 81.6,-3.3 90.9,-4 9.3,-0.6 25.8,-2.5 25.8,-2.5 z"
       id="path30444"
       inkscape:connector-curvature="0"
       style="fill:#191919" /><path
       style="fill:#ffffff"
       inkscape:connector-curvature="0"
       id="path30446"
       d="m 265.3,84.8 c 0,0 -22.6,-0.1 -37,0 -14.4,0.1 -17.4,-2 -23.4,-7 -8,-6.7 -7,-9.8 -7,-9.8 h 67.3" /><path
       d="m 265.3,84.7 c 0,0 -22.2,-0.1 -36.4,0 -14.2,0.1 -17.9,-2.4 -23.1,-7 -7.7,-6.8 -6.8,-9.5 -6.8,-9.5 h 66.3"
       id="path30463"
       style="fill:url(#linearGradient13713)"
       inkscape:connector-curvature="0" /><path
       style="fill:#ffffff"
       inkscape:connector-curvature="0"
       id="path30465"
       d="m 262.9,84.8 c 0,0 22.6,-0.1 37,0 14.4,0.1 17.4,-2 23.4,-7 8,-6.7 7,-9.8 7,-9.8 H 263" /><path
       d="m 262.9,84.7 c 0,0 22.3,-0.1 36.4,0 14.2,0.1 17.9,-2.4 23.1,-7 7.7,-6.8 6.8,-9.5 6.8,-9.5 h -68.3"
       id="path30482"
       style="fill:url(#SVGID_20_)"
       inkscape:connector-curvature="0" /><path
       inkscape:connector-curvature="0"
       id="polyline30484"
       d="m 277.6,78.3 h 9.4 v -1.1 h -6.5 v -4.6 h -2.9 v 5.7"
       style="fill:#ffffff" /><path
       inkscape:connector-curvature="0"
       id="polyline30499"
       d="m 277.9,78.1 h 8.8 v -1 h -6.1 v -4.4 h -2.7 v 5.4"
       style="fill:url(#SVGID_21_)" /><path
       style="fill:#ffffff"
       inkscape:connector-curvature="0"
       id="path30501"
       d="m 226.5,72.6 v 5.7 h 2.8 c 0,0 0,-2.2 0,-2.3 0.1,0 4.9,0 4.9,0 0,0.1 0,2.3 0,2.3 h 2.8 v -5.7 h -2.8 c 0,0 0,2.2 0,2.3 -0.1,0 -4.9,0 -4.9,0 0,-0.1 0,-2.3 0,-2.3 h -2.8" /><path
       inkscape:connector-curvature="0"
       style="fill:url(#SVGID_22_)"
       id="path30516"
       d="m 226.7,72.7 v 5.4 h 2.7 c 0,0 0,-2.1 0,-2.2 0.1,0 4.7,0 4.7,0 0,0.1 0,2.2 0,2.2 h 2.7 v -5.4 h -2.7 c 0,0 0,2.1 0,2.2 -0.1,0 -4.7,0 -4.7,0 0,-0.1 0,-2.2 0,-2.2 h -2.7" /><path
       style="fill:#ffffff"
       inkscape:connector-curvature="0"
       id="path30518"
       d="m 260.9,72.5 -2.7,2.5 -2.8,-2.5 H 252 c 0,0 4.1,3.4 4.2,3.5 0,0 0,2.4 0,2.4 h 2.9 c 0,0 0,-2.4 0,-2.4 0,0 3.9,-3.4 3.9,-3.4 h -2.1" /><path
       inkscape:connector-curvature="0"
       style="fill:url(#SVGID_23_)"
       id="path30533"
       d="m 260.7,72.7 -2.5,2.3 -2.6,-2.3 h -3.2 c 0,0 3.8,3.2 3.8,3.2 0,0 0,2.2 0,2.2 h 2.7 c 0,0 0,-2.2 0,-2.2 0,0 3.6,-3.2 3.6,-3.2 h -1.8" /><path
       inkscape:connector-curvature="0"
       id="polyline30535"
       d="m 289.5,78.3 h 9.6 v -1 h -6.8 v -1.4 h 6.5 v -1 h -6.5 v -1.4 h 6.6 v -0.9 h -9.4 v 5.7"
       style="fill:#ffffff" /><path
       inkscape:connector-curvature="0"
       id="polyline30550"
       d="m 289.7,78.1 h 9.1 v -0.9 h -6.3 v -1.4 h 6 v -0.9 h -6 v -1.3 h 6.2 v -0.9 h -9 v 5.4"
       style="fill:url(#SVGID_24_)" /><path
       style="fill:#ffffff"
       inkscape:connector-curvature="0"
       id="path30552"
       d="m 264.4,74 c 0,1.3 1.5,1.7 3.7,1.9 2.2,0.3 3.2,0.3 3.2,0.8 0,0.4 -0.6,0.7 -2.5,0.7 -2.1,0 -3.9,-0.5 -4.1,-0.6 0,0.1 -0.3,1.2 -0.3,1.2 0.3,0.1 2,0.4 4.5,0.4 2.8,0 5.5,-0.5 5.5,-2 0,-1 -1.1,-1.6 -4.2,-1.9 -1.3,-0.2 -2.7,-0.2 -2.7,-0.7 0,-0.4 0.4,-0.5 2.2,-0.5 1.8,0 3.4,0.4 3.6,0.4 l 0.2,-1.1 c -0.3,-0.1 -2.1,-0.4 -4.5,-0.4 -2,0.1 -4.6,0.4 -4.6,1.8" /><path
       inkscape:connector-curvature="0"
       style="fill:url(#SVGID_25_)"
       id="path30567"
       d="m 264.7,74.1 c 0,1.2 1.4,1.5 3.4,1.8 2,0.2 2.9,0.3 2.9,0.8 0,0.4 -0.6,0.6 -2.3,0.6 -2,0 -3.6,-0.5 -3.8,-0.5 0,0.1 -0.3,1.1 -0.3,1.1 0.3,0.1 1.8,0.4 4.2,0.4 2.6,0 5.1,-0.5 5.1,-1.9 0,-1 -1,-1.5 -3.9,-1.8 -1.2,-0.1 -2.5,-0.2 -2.5,-0.7 0,-0.3 0.3,-0.5 2.1,-0.5 1.7,0 3.1,0.4 3.4,0.4 l 0.2,-1 c -0.3,-0.1 -2,-0.4 -4.2,-0.4 -1.8,0.1 -4.3,0.3 -4.3,1.7" /><path
       style="fill:#ffffff"
       inkscape:connector-curvature="0"
       id="path30569"
       d="m 213.5,75.4 c 0,1.8 1.9,3.1 6,3.1 1.6,0 3.2,-0.2 3.5,-0.3 l 0.2,-1.2 c -0.3,0 -1.7,0.2 -3.1,0.2 -2.2,0 -3.7,-0.5 -3.7,-1.9 0,-1.3 1.4,-1.9 3.8,-1.9 1.3,0 2.7,0.2 3.1,0.2 l -0.2,-1.2 c -0.4,0 -1.8,-0.3 -3.4,-0.3 -4.3,0.2 -6.2,1.5 -6.2,3.3" /><path
       inkscape:connector-curvature="0"
       style="fill:url(#SVGID_26_)"
       id="path30584"
       d="m 213.7,75.4 c 0,1.7 1.8,2.9 5.6,2.9 1.5,0 3,-0.2 3.3,-0.3 l 0.2,-1.1 c -0.3,0 -1.6,0.2 -3,0.2 -2.1,0 -3.5,-0.5 -3.5,-1.8 0,-1.2 1.4,-1.8 3.6,-1.8 1.3,0 2.6,0.2 2.9,0.2 l -0.2,-1.1 c -0.4,0 -1.7,-0.2 -3.2,-0.2 -3.8,0.1 -5.7,1.2 -5.7,3" /><path
       style="fill:#ffffff"
       inkscape:connector-curvature="0"
       id="path30586"
       d="m 240.9,78.2 h 2.8 v -4.6 c 0.4,0 0.8,-0.1 1.5,-0.1 0.7,0 1.2,0 1.6,0.1 0.9,0.1 1.1,0.4 1.1,0.8 0,0.4 -0.4,0.7 -1.2,0.9 -0.6,0.1 -0.9,0.1 -1.4,0.1 -0.3,0 -0.5,0 -0.9,0 l 3.2,2.9 h 3.6 L 248,76 c 0.6,0 0.9,-0.1 1.5,-0.3 0.9,-0.3 1.3,-0.7 1.3,-1.2 0,-0.6 -0.4,-1.2 -2,-1.6 -0.9,-0.2 -2,-0.3 -3.5,-0.3 -2,0 -4.1,0.1 -4.3,0.1 -0.1,0 -0.1,5.5 -0.1,5.5" /><path
       inkscape:connector-curvature="0"
       style="fill:url(#SVGID_27_)"
       id="path30601"
       d="m 241,78.1 h 2.7 v -4.4 c 0.4,0 0.8,-0.1 1.4,-0.1 0.7,0 1.1,0 1.5,0.1 0.8,0.1 1.1,0.4 1.1,0.7 0,0.4 -0.4,0.7 -1.2,0.8 -0.5,0.1 -0.9,0.1 -1.4,0.1 -0.3,0 -0.5,0 -0.8,0 l 3.1,2.8 h 3.4 l -3.1,-2.2 c 0.6,0 0.8,-0.1 1.5,-0.3 0.8,-0.3 1.2,-0.7 1.2,-1.2 0,-0.6 -0.4,-1.2 -1.9,-1.5 -0.8,-0.2 -1.9,-0.3 -3.3,-0.3 -1.9,0 -4,0.1 -4.2,0.1 0,0 0,5.4 0,5.4" /><path
       style="fill:#ffffff"
       inkscape:connector-curvature="0"
       id="path30603"
       d="m 302.1,78.3 h 2.9 v -4.7 c 0.4,0 0.8,-0.1 1.5,-0.1 0.7,0 1.2,0 1.6,0.1 0.9,0.1 1.2,0.4 1.1,0.8 0,0.4 -0.4,0.7 -1.3,0.9 -0.6,0.1 -1,0.1 -1.5,0.1 -0.3,0 -0.5,0 -0.9,0 l 3.3,3 h 3.7 L 309.2,76 c 0.7,0 0.9,-0.1 1.5,-0.3 0.9,-0.3 1.3,-0.7 1.3,-1.2 0,-0.7 -0.4,-1.2 -2,-1.6 -0.9,-0.2 -2,-0.3 -3.5,-0.3 -2.1,0 -4.2,0.1 -4.4,0.1 0,-0.1 0,5.6 0,5.6" /><path
       inkscape:connector-curvature="0"
       style="fill:url(#SVGID_28_)"
       id="path30618"
       d="m 302.4,78.1 h 2.7 v -4.4 c 0.4,0 0.8,-0.1 1.4,-0.1 0.7,0 1.1,0 1.5,0.1 0.8,0.1 1.1,0.4 1.1,0.7 0,0.4 -0.4,0.7 -1.2,0.8 -0.5,0.1 -0.9,0.1 -1.4,0.1 -0.3,0 -0.5,0 -0.8,0 l 3.1,2.8 h 3.4 l -3.1,-2.2 c 0.6,0 0.8,-0.1 1.5,-0.3 0.8,-0.3 1.2,-0.7 1.2,-1.2 0,-0.6 -0.4,-1.2 -1.9,-1.5 -0.8,-0.2 -1.9,-0.3 -3.3,-0.3 -2,0 -4,0.1 -4.2,0.1 0,0 0,5.4 0,5.4" /><path
       style="fill:url(#SVGID_29_)"
       d="m 198.7,72.8 h -28.2 l 4,3.5 h 27.6"
       id="polyline30627"
       inkscape:connector-curvature="0" /><path
       d="m 195.2,68.6 c 0,0 -7.3,0 -9.6,0.2 -2.1,0.2 -2.8,1.3 -2.8,1.3 0,0 5.3,1.6 7.7,1.5 1.6,0.1 7.3,0.5 7.3,0.5 z"
       id="path30629"
       inkscape:connector-curvature="0"
       style="fill:#929292" /><path
       d="m 191.8,78.2 h -18.7 c 0,0 1.5,2 4.2,2.1 2.7,0.1 25,0 25,0 z"
       id="path30631"
       inkscape:connector-curvature="0"
       style="fill:#f2f2f2" /><path
       d="m 336.6,78.2 h 18.7 c 0,0 -1.5,2 -4.2,2.1 -2.7,0.1 -25,0 -25,0 z"
       id="path30633"
       inkscape:connector-curvature="0"
       style="fill:#f2f2f2" /><path
       d="m 200,76.4 c -2.3,0.1 -3.1,0 -3.8,0 -3,0.3 -4.6,1.8 -4.6,1.8 0,0 2.5,0.9 5.1,1.4 2.6,0.5 7,0.8 7,0.8"
       id="path30635"
       inkscape:connector-curvature="0"
       style="fill:#848c8e" /><path
       style="fill:url(#SVGID_30_)"
       d="m 330.4,72.8 h 28.2 l -4.1,3.5 H 327"
       id="polyline30642"
       inkscape:connector-curvature="0" /><path
       d="m 333.9,68.6 c 0,0 6.9,0 9.2,0.2 2.1,0.2 3.2,1.3 3.2,1.3 0,0 -5.3,1.6 -7.7,1.5 -1.6,0.1 -7.3,0.5 -7.3,0.5 z"
       id="path30644"
       inkscape:connector-curvature="0"
       style="fill:#929292" /><path
       d="m 329.1,76.4 c 2.3,0.1 3.1,0 3.8,0 3,0.3 5,1.8 5,1.8 0,0 -2.9,0.9 -5.5,1.4 -2.7,0.5 -7,0.8 -7,0.8"
       id="path30646"
       inkscape:connector-curvature="0"
       style="fill:#848c8e" /><path
       d="m 265.1,102.6 c 0,0 -6.7,-0.1 -11.8,0.7 -9.5,1.4 -8.1,2.3 -13.1,3.6 -5,1.3 -23.9,-1.1 -23.9,-1.1 C 216.3,105.8 50.8,80.5 41.5,79 28.1,76.9 28.7,77.2 18.2,72 4.3,65 0.6,58.8 0.6,58.8 c 0,0 2.5,1.2 6,3.5 17.8,11.4 19.3,10.9 22.8,12.2 9.9,3.7 163.5,25.8 163.5,25.8 0,0 34.8,6.3 40.5,4 5.7,-2.3 9,-4.4 11.8,-5 9.8,-2.3 23.4,-1.5 23.4,-1.5"
       id="path30648"
       inkscape:connector-curvature="0" /><path
       d="m 263.9,102.6 c 0,0 6.7,-0.1 11.8,0.7 9.5,1.4 8.1,2.3 13.1,3.6 5,1.3 23.9,-1.1 23.9,-1.1 0,0 165.5,-25.3 174.8,-26.8 13.4,-2.1 12.7,-2 23.3,-7 14.5,-6.9 17.6,-13.3 17.6,-13.3 0,0 -2.5,1.2 -6,3.5 -17.8,11.4 -19.3,10.9 -22.8,12.2 -9.9,3.7 -163.5,25.8 -163.5,25.8 0,0 -34.8,6.3 -40.5,4 -5.7,-2.3 -9,-4.4 -11.8,-5 -9.8,-2.3 -22.6,-1.5 -22.6,-1.5"
       id="path30650"
       inkscape:connector-curvature="0" /><path
       d="m 266.5,62.3 c 0,0 -37.3,0 -41.4,-1.3 -2.8,-0.9 -11.5,-5.1 -14.3,-6 -2.8,-0.9 -8.8,-1.3 -8.8,-1.3 0,0 -195.2,1.2 -197,1.5 -1.8,0.3 -3.5,1.5 -3.5,1.5 0,0 12.2,2 17.8,2.5 58.4,4.5 185,2.3 189.6,2.9 4.6,0.6 7.9,4 14,4 6.1,0 44.3,0 44.3,0"
       id="path30663"
       style="fill:url(#SVGID_31_)"
       inkscape:connector-curvature="0" /><path
       d="m 262.1,62.3 c 0,0 37.3,0 41.4,-1.3 2.8,-0.9 11.5,-5.1 14.3,-6 2.8,-0.9 8.8,-1.3 8.8,-1.3 0,0 195.3,1.2 197.1,1.4 1.8,0.2 3.5,1.5 3.5,1.5 0,0 -12.2,2 -17.8,2.5 -58.4,4.5 -185,2.3 -189.6,2.9 -4.6,0.6 -7.9,4 -14,4 -6.1,0 -44.3,0 -44.3,0"
       id="path30676"
       style="fill:url(#SVGID_32_)"
       inkscape:connector-curvature="0" /></g></g></svg>
