<svg version="1.2" xmlns="http://www.w3.org/2000/svg" viewBox="0 0 2835 1949" width="2835" height="1949">
	<defs>
		<linearGradient id="g1" x2="1" gradientUnits="userSpaceOnUse" gradientTransform="matrix(477.17,1780.81,-2069.554,554.539,1186.92,50.24)">
			<stop offset=".21" stop-color="#000000"/>
			<stop offset=".36" stop-color="#0b0b0b"/>
			<stop offset=".59" stop-color="#262626"/>
			<stop offset=".85" stop-color="#b2b2b2"/>
			<stop offset="1" stop-color="#ffffff"/>
		</linearGradient>
		<linearGradient id="g2" x2="1" gradientUnits="userSpaceOnUse" gradientTransform="matrix(478.86,1787.14,-2069.697,554.571,1186.88,50.25)">
			<stop offset="0" stop-color="#000000"/>
			<stop offset=".56" stop-color="#1a1a1a"/>
			<stop offset=".61" stop-color="#202020"/>
			<stop offset=".71" stop-color="#262626"/>
			<stop offset=".84" stop-color="#ffffff"/>
			<stop offset=".89" stop-color="#ffffff"/>
			<stop offset="1" stop-color="#808080"/>
		</linearGradient>
		<linearGradient id="g3" x2="1" gradientUnits="userSpaceOnUse" gradientTransform="matrix(-463.61,1730.2,-1121.823,-300.594,1174.35,.03)">
			<stop offset="0" stop-color="#000000" stop-opacity="0"/>
			<stop offset=".61" stop-color="#1a1a1a" stop-opacity="1"/>
			<stop offset=".67" stop-color="#1d1d1d" stop-opacity="1"/>
			<stop offset=".71" stop-color="#262626" stop-opacity="1"/>
			<stop offset=".87" stop-color="#eeeeee" stop-opacity="1"/>
			<stop offset="1" stop-color="#dcdcdc" stop-opacity="0"/>
		</linearGradient>
		<linearGradient id="g4" x2="1" gradientUnits="userSpaceOnUse" gradientTransform="matrix(-695.55,-1911,2221.719,-808.643,1765.9,1903.67)">
			<stop offset=".04" stop-color="#000000"/>
			<stop offset=".19" stop-color="#000000"/>
			<stop offset=".29" stop-color="#343434"/>
			<stop offset=".45" stop-color="#8a8a8a"/>
			<stop offset=".58" stop-color="#c9c9c9"/>
			<stop offset=".68" stop-color="#f0f0f0"/>
			<stop offset=".73" stop-color="#ffffff"/>
			<stop offset="1" stop-color="#4d4d4d"/>
		</linearGradient>
		<linearGradient id="g5" x2="1" gradientUnits="userSpaceOnUse" gradientTransform="matrix(258.92,-902.99,687.007,196.99,575.78,864.03)">
			<stop offset="0" stop-color="#ffffff" stop-opacity="0"/>
			<stop offset=".11" stop-color="#ffffff" stop-opacity=".25"/>
			<stop offset=".28" stop-color="#ffffff" stop-opacity=".65"/>
			<stop offset=".4" stop-color="#ffffff" stop-opacity=".9"/>
			<stop offset=".46" stop-color="#ffffff" stop-opacity="1"/>
			<stop offset=".81" stop-color="#bcbcbc" stop-opacity=".34"/>
			<stop offset="1" stop-color="#9a9a9a" stop-opacity="0"/>
		</linearGradient>
		<linearGradient id="g6" x2="1" gradientUnits="userSpaceOnUse" gradientTransform="matrix(1425.11,0,0,266.14,709.26,236.85)">
			<stop offset="0" stop-color="#000000" stop-opacity="1"/>
			<stop offset=".03" stop-color="#101010" stop-opacity=".94"/>
			<stop offset=".13" stop-color="#3f3f3f" stop-opacity=".74"/>
			<stop offset=".24" stop-color="#616161" stop-opacity=".6"/>
			<stop offset=".36" stop-color="#767676" stop-opacity=".52"/>
			<stop offset=".5" stop-color="#7c7c7c" stop-opacity=".5"/>
			<stop offset="1" stop-color="#000000" stop-opacity="1"/>
		</linearGradient>
		<linearGradient id="g7" x2="1" gradientUnits="userSpaceOnUse" gradientTransform="matrix(67.99,186.79,-414.763,150.97,2331.12,1387.88)">
			<stop offset=".24" stop-color="#000000" stop-opacity="0"/>
			<stop offset=".44" stop-color="#000000" stop-opacity="1"/>
			<stop offset=".69" stop-color="#000000" stop-opacity=".74"/>
			<stop offset="1" stop-color="#000000" stop-opacity="0"/>
		</linearGradient>
		<linearGradient id="g8" x2="1" gradientUnits="userSpaceOnUse" gradientTransform="matrix(-577.98,1042.71,-464.978,-257.74,933.9,-60.15)">
			<stop offset="0" stop-color="#ffffff" stop-opacity="0"/>
			<stop offset=".05" stop-color="#ffffff" stop-opacity=".11"/>
			<stop offset=".16" stop-color="#ffffff" stop-opacity=".39"/>
			<stop offset=".31" stop-color="#ffffff" stop-opacity=".84"/>
			<stop offset=".37" stop-color="#ffffff" stop-opacity="1"/>
			<stop offset="1" stop-color="#808080" stop-opacity="0"/>
		</linearGradient>
		<linearGradient id="g9" x2="1" gradientUnits="userSpaceOnUse" gradientTransform="matrix(341.26,0,0,161.321,2032.19,254.32)">
			<stop offset="0" stop-color="#000000" stop-opacity="1"/>
			<stop offset=".09" stop-color="#000000" stop-opacity=".8"/>
			<stop offset="1" stop-color="#000000" stop-opacity="0"/>
		</linearGradient>
		<linearGradient id="g10" x2="1" gradientUnits="userSpaceOnUse" gradientTransform="matrix(0,220.86,-447.167,0,610.12,163.82)">
			<stop offset="0" stop-color="#000000" stop-opacity="1"/>
			<stop offset="1" stop-color="#000000" stop-opacity="0"/>
		</linearGradient>
		<linearGradient id="g11" x2="1" gradientUnits="userSpaceOnUse" gradientTransform="matrix(-96.3,264.58,-820.663,-298.699,715.71,1470.43)">
			<stop offset=".05" stop-color="#000000" stop-opacity="0"/>
			<stop offset=".26" stop-color="#000000" stop-opacity="1"/>
			<stop offset=".53" stop-color="#000000" stop-opacity=".85"/>
			<stop offset=".61" stop-color="#050505" stop-opacity=".84"/>
			<stop offset=".69" stop-color="#161616" stop-opacity=".79"/>
			<stop offset=".74" stop-color="#262626" stop-opacity=".74"/>
			<stop offset=".76" stop-color="#1c1c1c" stop-opacity=".54"/>
			<stop offset=".79" stop-color="#0c0c0c" stop-opacity=".23"/>
			<stop offset=".85" stop-color="#030303" stop-opacity=".05"/>
			<stop offset="1" stop-color="#000000" stop-opacity="0"/>
		</linearGradient>
		<linearGradient id="g12" x2="1" gradientUnits="userSpaceOnUse" gradientTransform="matrix(-238.95,-833.3,675.521,-193.707,2239.45,798.69)">
			<stop offset="0" stop-color="#ffffff" stop-opacity="0"/>
			<stop offset=".17" stop-color="#c8c8c8" stop-opacity=".32"/>
			<stop offset=".46" stop-color="#565656" stop-opacity="1"/>
			<stop offset=".47" stop-color="#404040" stop-opacity="1"/>
			<stop offset=".6" stop-color="#464646" stop-opacity=".93"/>
			<stop offset=".74" stop-color="#595959" stop-opacity=".72"/>
			<stop offset=".88" stop-color="#777777" stop-opacity=".37"/>
			<stop offset=".97" stop-color="#939393" stop-opacity=".05"/>
			<stop offset="1" stop-color="#9a9a9a" stop-opacity="0"/>
		</linearGradient>
		<linearGradient id="g13" x2="1" gradientUnits="userSpaceOnUse" gradientTransform="matrix(210.69,0,0,193.71,2189.27,387.37)">
			<stop offset="0" stop-color="#000000"/>
			<stop offset=".31" stop-color="#060606"/>
			<stop offset=".71" stop-color="#151515"/>
			<stop offset="1" stop-color="#262626"/>
		</linearGradient>
		<linearGradient id="g14" x2="1" gradientUnits="userSpaceOnUse" gradientTransform="matrix(-210.64,0,0,-199.76,650.09,390.12)">
			<stop offset="0" stop-color="#000000"/>
			<stop offset=".31" stop-color="#060606"/>
			<stop offset=".71" stop-color="#151515"/>
			<stop offset="1" stop-color="#262626"/>
		</linearGradient>
		<linearGradient id="g15" x2="1" gradientUnits="userSpaceOnUse" gradientTransform="matrix(218.43,0,0,205.298,432.62,394.03)">
			<stop offset="0" stop-color="#b2b2b2"/>
			<stop offset=".01" stop-color="#b0b0b0"/>
			<stop offset=".26" stop-color="#666666"/>
			<stop offset=".44" stop-color="#383838"/>
			<stop offset=".53" stop-color="#262626"/>
		</linearGradient>
		<linearGradient id="g16" x2="1" gradientUnits="userSpaceOnUse" gradientTransform="matrix(-219.35,0,0,-205.898,2402.84,393.44)">
			<stop offset="0" stop-color="#b2b2b2"/>
			<stop offset=".01" stop-color="#b0b0b0"/>
			<stop offset=".26" stop-color="#666666"/>
			<stop offset=".44" stop-color="#383838"/>
			<stop offset=".53" stop-color="#262626"/>
		</linearGradient>
		<linearGradient id="g17" x2="1" gradientUnits="userSpaceOnUse" gradientTransform="matrix(1864.32,0,0,740.408,492.32,1010.73)">
			<stop offset="0" stop-color="#000000" stop-opacity="1"/>
			<stop offset=".03" stop-color="#171717" stop-opacity="1"/>
			<stop offset=".1" stop-color="#3c3c3c" stop-opacity="1"/>
			<stop offset=".16" stop-color="#5b5b5b" stop-opacity="1"/>
			<stop offset=".23" stop-color="#737373" stop-opacity="1"/>
			<stop offset=".3" stop-color="#848484" stop-opacity="1"/>
			<stop offset=".38" stop-color="#8e8e8e" stop-opacity="1"/>
			<stop offset=".48" stop-color="#919191" stop-opacity="1"/>
			<stop offset=".5" stop-color="#000000" stop-opacity=".9"/>
			<stop offset=".52" stop-color="#090909" stop-opacity=".92"/>
			<stop offset=".55" stop-color="#272727" stop-opacity="1"/>
			<stop offset=".56" stop-color="#323232" stop-opacity="1"/>
			<stop offset=".57" stop-color="#393939" stop-opacity="1"/>
			<stop offset=".59" stop-color="#3b3b3b" stop-opacity="1"/>
			<stop offset="1" stop-color="#000000" stop-opacity="1"/>
		</linearGradient>
		<linearGradient id="g18" x2="1" gradientUnits="userSpaceOnUse" gradientTransform="matrix(804.83,-156.44,157.672,811.168,514.73,962.58)">
			<stop offset="0" stop-color="#000000"/>
			<stop offset=".55" stop-color="#181818"/>
			<stop offset="1" stop-color="#262626"/>
		</linearGradient>
		<linearGradient id="g19" x2="1" gradientUnits="userSpaceOnUse" gradientTransform="matrix(992,0,0,889.089,1417.42,782.69)">
			<stop offset="0" stop-color="#000000"/>
			<stop offset=".03" stop-color="#282828"/>
			<stop offset=".07" stop-color="#4f4f4f"/>
			<stop offset=".11" stop-color="#717171"/>
			<stop offset=".15" stop-color="#8d8d8d"/>
			<stop offset=".2" stop-color="#a4a4a4"/>
			<stop offset=".25" stop-color="#b6b6b6"/>
			<stop offset=".31" stop-color="#c3c3c3"/>
			<stop offset=".4" stop-color="#cacaca"/>
			<stop offset=".61" stop-color="#cccccc"/>
			<stop offset=".82" stop-color="#ffffff"/>
		</linearGradient>
		<linearGradient id="g20" x2="1" gradientUnits="userSpaceOnUse" gradientTransform="matrix(146.37,478.76,-1129.711,345.383,1836.1,728.66)">
			<stop offset="0" stop-color="#000000"/>
			<stop offset=".03" stop-color="#000000"/>
			<stop offset=".34" stop-color="#000000"/>
			<stop offset=".42" stop-color="#090909"/>
			<stop offset=".57" stop-color="#171717"/>
			<stop offset=".81" stop-color="#000000"/>
		</linearGradient>
		<linearGradient id="g21" x2="1" gradientUnits="userSpaceOnUse" gradientTransform="matrix(-997.23,0,0,-888.697,1422.23,781.98)">
			<stop offset="0" stop-color="#000000"/>
			<stop offset=".04" stop-color="#1f1f1f"/>
			<stop offset=".08" stop-color="#3e3e3e"/>
			<stop offset=".13" stop-color="#545454"/>
			<stop offset=".17" stop-color="#616161"/>
			<stop offset=".21" stop-color="#666666"/>
			<stop offset=".24" stop-color="#737373"/>
			<stop offset=".35" stop-color="#9e9e9e"/>
			<stop offset=".45" stop-color="#c1c1c1"/>
			<stop offset=".56" stop-color="#dcdcdc"/>
			<stop offset=".67" stop-color="#f0f0f0"/>
			<stop offset=".78" stop-color="#fbfbfb"/>
			<stop offset=".89" stop-color="#ffffff"/>
			<stop offset="1" stop-color="#adadad"/>
		</linearGradient>
		<linearGradient id="g22" x2="1" gradientUnits="userSpaceOnUse" gradientTransform="matrix(1073.51,1859.36,-2036.767,1175.937,881.06,18.11)">
			<stop offset="0" stop-color="#f2f2f2"/>
			<stop offset=".97" stop-color="#262626"/>
		</linearGradient>
		<linearGradient id="g23" x2="1" gradientUnits="userSpaceOnUse" gradientTransform="matrix(1344.17,0,0,218.782,758,1666.35)">
			<stop offset="0" stop-color="#000000"/>
			<stop offset=".24" stop-color="#262626"/>
			<stop offset=".5" stop-color="#565656"/>
			<stop offset="1" stop-color="#000000"/>
		</linearGradient>
		<linearGradient id="g24" x2="1" gradientUnits="userSpaceOnUse" gradientTransform="matrix(0,-1301.57,2143.251,0,1417.32,1844.87)">
			<stop offset=".12" stop-color="#333333"/>
			<stop offset=".18" stop-color="#3c3c3c"/>
			<stop offset=".27" stop-color="#555555"/>
			<stop offset=".39" stop-color="#7e7e7e"/>
			<stop offset=".53" stop-color="#b7b7b7"/>
			<stop offset=".67" stop-color="#f8f8f8"/>
			<stop offset=".73" stop-color="#ffffff"/>
		</linearGradient>
		<linearGradient id="g25" x2="1" gradientUnits="userSpaceOnUse" gradientTransform="matrix(1991.82,-724.96,562.641,1545.85,459.18,1425.6)">
			<stop offset="0" stop-color="#4d4d4d"/>
			<stop offset=".21" stop-color="#999999"/>
			<stop offset=".37" stop-color="#f2f2f2"/>
			<stop offset=".63" stop-color="#f0f0f0"/>
			<stop offset=".73" stop-color="#e9e9e9"/>
			<stop offset=".8" stop-color="#dedede"/>
			<stop offset=".85" stop-color="#cdcdcd"/>
			<stop offset=".9" stop-color="#b7b7b7"/>
			<stop offset=".94" stop-color="#9c9c9c"/>
			<stop offset=".97" stop-color="#7d7d7d"/>
			<stop offset=".98" stop-color="#797979"/>
			<stop offset="1" stop-color="#4d4d4d"/>
		</linearGradient>
		<linearGradient id="g26" x2="1" gradientUnits="userSpaceOnUse" gradientTransform="matrix(0,-1268.59,2110.977,0,1417.32,1827.01)">
			<stop offset=".36" stop-color="#f2f2f2" stop-opacity="0"/>
			<stop offset=".43" stop-color="#e0e0e0" stop-opacity=".15"/>
			<stop offset=".56" stop-color="#b0b0b0" stop-opacity=".54"/>
			<stop offset=".7" stop-color="#797979" stop-opacity="1"/>
			<stop offset=".79" stop-color="#515151" stop-opacity="1"/>
			<stop offset=".87" stop-color="#333333" stop-opacity="1"/>
			<stop offset=".95" stop-color="#212121" stop-opacity="1"/>
			<stop offset="1" stop-color="#1a1a1a" stop-opacity="1"/>
		</linearGradient>
		<linearGradient id="g27" x2="1" gradientUnits="userSpaceOnUse" gradientTransform="matrix(-1073.51,1859.36,-2036.863,-1175.992,1953.59,18.11)">
			<stop offset="0" stop-color="#e6e6e6"/>
			<stop offset="1" stop-color="#333333"/>
		</linearGradient>
	</defs>
	<style>
		.s0 { fill: #000000 } 
		.s1 { fill: #ffffff } 
		.s2 { fill: url(#g1) } 
		.s3 { fill: url(#g2) } 
		.s4 { fill: url(#g3) } 
		.s5 { fill: url(#g4) } 
		.s6 { opacity: .74;fill: url(#g5) } 
		.s7 { fill: url(#g6) } 
		.s8 { fill: url(#g7) } 
		.s9 { opacity: .9;fill: url(#g8) } 
		.s10 { opacity: .2;fill: url(#g9) } 
		.s11 { opacity: .08;fill: url(#g10) } 
		.s12 { fill: url(#g11) } 
		.s13 { opacity: .9;fill: url(#g12) } 
		.s14 { fill: url(#g13) } 
		.s15 { fill: url(#g14) } 
		.s16 { fill: #1a1a1a } 
		.s17 { fill: url(#g15) } 
		.s18 { fill: url(#g16) } 
		.s19 { fill: url(#g17) } 
		.s20 { fill: url(#g18) } 
		.s21 { fill: url(#g19) } 
		.s22 { fill: url(#g20) } 
		.s23 { fill: url(#g21) } 
		.s24 { fill: none } 
		.s25 { fill: #666666 } 
		.s26 { fill: #cccccc } 
		.s27 { fill: url(#g22) } 
		.s28 { fill: url(#g23) } 
		.s29 { fill: url(#g24) } 
		.s30 { fill: #b3b3b3 } 
		.s31 { opacity: .9;fill: url(#g25) } 
		.s32 { fill: url(#g26) } 
		.s33 { fill: #4d4d4d } 
		.s34 { fill: url(#g27) } 
	</style>
	<g id="symbol">
		<path class="s0" d="m2381.25 297.79c-189.92-203.88-496.47-297.35-963.88-297.79h-0.1c-467.4 0.44-773.95 93.91-963.87 297.79-141 151.32-229.59 360.62-229.59 644.73 0 156.92 38.83 557 354.5 763.38 189.05 123.61 433.07 203.54 839 204.09h0.1c405.9-0.55 649.92-80.48 839-204.09 315.68-206.41 354.51-606.46 354.51-763.38-0.08-283.22-89.26-494.01-229.67-644.73zm-963.93 1447.7c-153.64-0.24-278.28-12.8-381.08-38.42-100.58-25.07-184.34-63.71-256.06-118.15-53.58-40.68-100.18-92.09-138.53-152.82-32.75-51.87-59.83-111-80.5-175.91-41.95-131.64-46.48-251.44-46.48-296.83 0-66.81 4.52-130.36 13.45-188.92 109.88 59.3 214.19 89 306.28 115.26l21.4 6.1c128.27 36.77 230.24 85.2 311.76 148q17.47 13.4 33.92 28.01 16.46 14.62 31.83 30.38 15.36 15.76 29.55 32.59 14.19 16.83 27.14 34.63c36.62 50.61 65.94 108.31 87.13 171.48 9.66 28.81 19.75 46.67 40.19 46.67 20.44 0 30.54-17.86 40.2-46.67 21.19-63.17 50.5-120.87 87.12-171.48q12.95-17.8 27.14-34.62 14.19-16.82 29.56-32.58 15.37-15.75 31.83-30.37 16.45-14.61 33.92-28c81.51-62.84 183.49-111.27 311.76-148l21.4-6.11c92.08-26.23 196.4-56 306.28-115.25 8.92 58.52 13.47 122.07 13.47 188.88 0 45.53-4.51 165.6-46.24 296.83-20.63 64.87-47.7 124.06-80.47 175.91-38.38 60.73-85.08 112.15-138.81 152.82-71.85 54.38-155.62 93-256.11 118.08-102.88 25.66-227.5 38.25-381 38.49zm0-703.38c-3.7 0-10.53-4.48-22.08-25.81-49.56-91.55-115.7-170.33-196.57-234.15-61.23-48.35-131.5-88.41-208.86-119.07l-34.35-13.56c-100.78-39.7-205-80.75-302-136.79-10.86-6.28-21.54-12.71-31.78-19.12q7.24-12.67 15.03-25 7.79-12.34 16.13-24.31 8.33-11.98 17.18-23.57 8.86-11.6 18.22-22.79 13.54-16.14 28.16-31.29 14.62-15.15 30.27-29.26 15.64-14.1 32.23-27.08 16.58-12.98 34.03-24.77c47.39-32.08 101.54-59.09 160.94-80.28 121.13-43.26 266.2-64.26 443.42-64.49 177.29 0.18 322.33 21.27 443.48 64.49 59.4 21.19 113.55 48.2 160.94 80.28q17.45 11.79 34.03 24.77 16.59 12.98 32.23 27.08 15.65 14.11 30.27 29.26 14.62 15.15 28.16 31.29 9.37 11.19 18.23 22.79 8.86 11.59 17.19 23.57 8.34 11.97 16.14 24.31 7.8 12.33 15.04 25c-10.25 6.41-20.94 12.84-31.79 19.13-97 56-201.21 97.08-302 136.79q-17.25 6.78-34.35 13.55c-77.39 30.66-147.66 70.72-208.86 119.07-80.87 63.83-147 142.6-196.56 234.15-11.55 21.33-18.39 25.81-22.09 25.81z"/>
		<path class="s1" d="m2542.33 572.9c-38-101.9-93.89-192.9-166.13-270.47-94.86-101.8-217.54-174.86-375-223.36-157.27-48.41-348.2-72.07-583.83-72.27-235.66 0.2-426.65 23.86-583.88 72.27-157.49 48.5-280.19 121.56-375.05 223.36-72.51 77.82-128.44 168.79-166.33 270.36-40.82 109.53-61.52 233.93-61.52 369.74 0 123.84 25.36 544.46 351.61 757.73 101.63 66.44 211.6 114.62 336.18 147.28 141.81 37.18 305 55.39 498.9 55.65 193.93-0.26 357.13-18.47 498.94-55.65 124.58-32.66 234.54-80.84 336.18-147.28 326.25-213.27 351.61-633.89 351.61-757.73 0.05-135.37-20.72-259.73-61.68-369.63zm-1928.79-79.34q7.49-13.26 15.58-26.16 8.1-12.91 16.77-25.43 8.67-12.52 17.91-24.63 9.24-12.11 19.02-23.78c148.11-176.78 381.49-259.28 734.55-259.64 353 0.36 586.34 82.86 734.46 259.64q9.78 11.67 19.02 23.78 9.24 12.11 17.91 24.63 8.67 12.52 16.77 25.43 8.09 12.9 15.58 26.16 0.69 1.24 1.37 2.48l-2.39 1.53q-27.57 17.42-57.51 33.9c-91.14 50.14-187.75 88.19-281.18 125q-17.25 6.78-34.35 13.55c-179.17 71-314.22 188.62-401.41 349.65-11.06 20.41-19.79 29.51-28.32 29.51-8.53 0-17.26-9.1-28.31-29.51-87.19-161.04-222.25-278.67-401.41-349.67q-16.9-6.69-34-13.4l-0.4-0.16c-93.43-36.79-190-74.84-281.18-125q-30-16.49-57.5-33.9l-2.4-1.53c0.5-0.79 0.95-1.63 1.42-2.45zm1445.2 1100.84c-145.7 110.25-337.48 157.49-641.26 158h-0.16c-304.29-0.46-496.12-47.7-641.42-158-255.38-193.81-268.31-559.66-268.31-631q0-105.63 14.56-197.28 0.23-1.5 0.47-3l2.64 1.46c111.92 61.52 215.85 91.14 311.53 118.39q10.82 3.07 21.48 6.13c129 37 231.69 85.74 313.84 149.06q17.65 13.53 34.28 28.29 16.64 14.75 32.16 30.67 15.53 15.92 29.88 32.91 14.34 16.99 27.43 34.97c37 51.13 66.62 109.4 88 173.18 10.21 30.46 19.28 41.78 33.44 41.78 14.16 0 23.23-11.32 33.45-41.78 21.4-63.78 51-122 88-173.18q13.08-17.98 27.43-34.98 14.34-16.99 29.87-32.91 15.53-15.92 32.16-30.69 16.63-14.76 34.28-28.29c82.16-63.32 184.82-112.08 313.84-149.06l21.49-6.13c95.67-27.25 199.61-56.87 311.52-118.39l2.64-1.46q0.24 1.5 0.47 3 14.6 91.78 14.57 197.28c0.04 71.46-12.9 437.76-268.28 631.03z"/>
		<path id="in_sf_base" fill-rule="evenodd" class="s2" d="m1693.42 1808.17c-153.22 18.02-392.66 19.23-558.06-0.29-326.6-38.61-775.71-201-775.71-870.19 0-399.76 185.35-884.52 1064.81-884.52 837.32 0 1064.86 400.21 1064.86 883.55 0 672.28-472.22 833.57-795.9 871.45zm1.51-77.13c209.8-34.56 447-123.37 561.08-404.15 42.05-103.49 69.82-233.07 69.82-395.62 0-446.34-227.06-794.89-904-794.89-785.53 0-908.89 417.47-908.89 796.25 0 634.13 386.06 765.99 635.87 800.85 162.76 22.69 407.07 20.52 546.12-2.44z"/>
		<path id="in_sf_base-2" fill-rule="evenodd" class="s3" d="m1692.82 1815.69c-153.22 18.06-392.06 16.53-557.46-3-326.6-38.61-775.71-205.81-775.71-875 0-399.76 185.35-884.52 1064.81-884.52 837.32 0 1064.86 400.21 1064.86 883.55 0 672.28-472.82 841.13-796.5 878.97zm2.11-84.65c220.33-36.3 446.6-119.55 562.54-408.38 41.36-103.03 71.93-231.39 68.36-391.39-10-444.89-225.8-794.89-904-794.89-743.11 0-907.51 404.36-908.89 796.25-2.24 634.13 386.06 765.99 635.87 800.85 162.76 22.69 407.07 20.52 546.12-2.44z"/>
		<path fill-rule="evenodd" class="s4" d="m1425.63 67.36v60.64c-680.87 1.63-915.21 362-915.21 818.18 0 407.34 187 628.69 386.15 721.29 228.56 106.25 494.19 87.6 369.27 135.32-30.49 11.63-55.91 30.77-165.84 17.91-323.67-37.93-737.48-197.49-737.48-869.74 0-483.05 227.27-883.04 1063.11-883.6z"/>
		<path id="out_sf_base" fill-rule="evenodd" class="s5" d="m2602.65 956.39c-3 245.35-87.34 527.65-287.46 693.68-209.91 174.17-532.34 249.73-897 249.73-361.43 0-673.33-61.81-909.2-260.07-187.44-157.56-278.45-437.6-278.45-686.45 0-271.09 87.23-558.55 314.7-732.16 217.53-166.04 571.85-217.25 871.63-217.25 335 0 659.64 54.77 876.18 227.6 224.95 179.6 312.95 448.26 309.6 724.92zm-118.3-9c0-449.21-262.12-883.53-1064.76-883.53-879.59 0.04-1064.87 484.81-1064.87 884.59 0 682.05 466.51 837.62 794.42 872.23 177.14 18.75 354.53 20.84 548.07-0.68 203.94-22.66 787.14-121.77 787.14-872.57z"/>
		<path fill-rule="evenodd" class="s6" d="m379.37 725.69c40.76-116.55 91.93-309.51 242-442.7 169.22-150.12 466.63-203.17 553.93-213.27-34.09-19.94-52-24.17-102.18-40.31-244.68 35.83-452.31 102.68-600.42 258.15-156.33 164.08-201.7 297.98-229.6 481.08 51.14-18.8 71.74-23.28 136.27-42.95z"/>
		<path id="in_up_right" fill-rule="evenodd" class="s7" d="m1411.12 103.78c283.66 0 553.86 48.4 723.25 266.14-259.49-321.26-1136.06-328.83-1425.11 0 169.44-193.23 418.12-266.14 701.86-266.14z"/>
		<path fill-rule="evenodd" class="s8" d="m2517.57 1366.6c14.8-32.92 13.83-30.53 20.16-51.32 2.73-9.13-2.43 5.5-8.57 17-7.89 15.09-6.23 13.92-18.31 31-12.37 17.29-16.08 19.14-39 33.55-18.32 11.59-41.11 19.09-77.34 39-9.36 5.12-13.84 8.82-32.93 33.6-13.73 17.77-28.44 38.17-36 46.89-23.57 27.17-82.71 79.6-117 109.65-29.9 26.09-23.26 25.61 19 11 37.89-13.06 94-36.43 127.21-50.16 20.95-8.62 38.19-23.22 45.1-31.35 41.02-47.71 89.04-125.13 117.68-188.86z"/>
		<path fill-rule="evenodd" class="s9" d="m359.65 946.55c0-216.18 76.53-497.77 260.82-661.32 169.2-150.12 458.59-206.31 545.87-216.41-34-19.94-52-24.18-102.18-40.31-244.69 35.85-452.36 107.09-600.51 262.56-169.65 178.04-231.65 419.74-235.75 620.52 43.1 12.57 75.3 21.53 131.75 34.96z"/>
		<path fill-rule="evenodd" class="s10" d="m2032.19 173.68c50.27 6.86 230.95 46.11 292.22 83.33 58.25 35.35 48.41 36.74 48.41 36.74l-108.51 41.25c0 0-76.17-85.17-232.12-161.32z"/>
		<path fill-rule="evenodd" class="s11" d="m796.63 171c-107.58 25.51-252.13 62.32-309.21 99.45-26.89 17.48-100.89 114.23-100.89 114.23l104.88-87.35c51.14-13.44 53.77-16.14 92.83-25.54 43.44-10.47 68.18-13.81 116.06-45.87 47.88-32.06 203.92-80.46 96.33-54.92z"/>
		<path fill-rule="evenodd" class="s12" d="m313 1335.92c7.2 15.19 14.22 37.88 42.08 50.25 21.62 9.64 38.86 16.8 60.48 25.22 34.71 13.54 61.3 59.79 83.89 89.64 22.21 29.22 92.93 94.61 128.19 123.43 52.7 43 149.81 101.08 224 131.27 5.35 2.14 208 86.48 185.55 106.2-6.52 5.74-193-47.14-201.67-49.72-159.85-48.59-328.94-145.53-441.42-306.94-15.2-21.87-71.26-123.68-83.82-164.87-7.86-26.07-6.28-23.91 2.72-4.48z"/>
		<path fill-rule="evenodd" class="s13" d="m2461.56 728.32c-40.81-116.48-91.95-309.46-242-442.63-169.2-150.11-466.58-203.16-553.86-213.27 34-19.93 51.92-24.19 102.18-40.31 244.69 35.81 452.36 107.07 600.51 262.54 124.39 130.59 178.94 283.13 207 407.72-43.02 12.51-57.39 12.51-113.83 25.95z"/>
		<path fill-rule="evenodd" class="s14" d="m2315.64 410.53l-94.64 73.69-31.69-47.9c22.89-31.57 59.23-87.57 63.61-93.56 4.38-5.99 15.39-14.19 24.45-17.16 9.06-2.97 49.13-23 81.47-35.09l41.16 48.16z"/>
		<path fill-rule="evenodd" class="s15" d="m520.78 416.27l94.68 73.73 34.63-54.9c-22.84-31.57-59.13-87.57-63.61-93.58-4.48-6.01-15.39-14.17-24.48-17.17-9.09-3-52.31-22-84.55-34.11l-38 47.18z"/>
		<path class="s16" d="m526.14 761.14q-0.18 0-0.35-0.05-0.17-0.04-0.33-0.13-0.15-0.09-0.28-0.22-0.12-0.13-0.21-0.28c-0.29-0.58-30.54-56.07-43.54-86.57-13-30.5-41.06-108.43-41.35-109.2q-0.09-0.25-0.08-0.52 0.01-0.26 0.11-0.51 0.11-0.24 0.31-0.42 0.19-0.18 0.44-0.28 0.25-0.1 0.53-0.1 0.27 0.01 0.52 0.12 0.25 0.12 0.43 0.32 0.18 0.2 0.27 0.46c0.29 0.78 28.3 78.61 41.3 109.06 13 30.45 43.1 85.79 43.39 86.37q0.2 0.3 0.22 0.67 0.01 0.36-0.18 0.68-0.19 0.31-0.51 0.47-0.33 0.17-0.69 0.13z"/>
		<path class="s16" d="m521.65 761.14q-0.18 0-0.35-0.05-0.17-0.04-0.33-0.13-0.15-0.09-0.28-0.22-0.12-0.13-0.21-0.28c-0.3-0.58-30.54-56.07-43.54-86.57-13-30.5-41.06-108.43-41.35-109.2q-0.09-0.25-0.09-0.52 0.01-0.26 0.12-0.51 0.11-0.24 0.31-0.42 0.19-0.19 0.44-0.28 0.25-0.1 0.53-0.1 0.27 0.01 0.52 0.12 0.25 0.12 0.43 0.32 0.18 0.2 0.27 0.46c0.29 0.78 28.29 78.61 41.3 109.06 13.01 30.45 43.1 85.79 43.39 86.37q0.2 0.3 0.22 0.67 0.01 0.36-0.18 0.68-0.19 0.31-0.51 0.47-0.33 0.17-0.69 0.13z"/>
		<path fill-rule="evenodd" class="s17" d="m651 435.55c0 0-13.71 19.45-20.19 30.11-6 9.81-17.7 31-17.7 31 0 0-56.11-35.86-101.81-76.2-42.18-37.18-63.06-61.51-78.69-80.67 8.47-10.71 8.48-10.7 43.85-48.39 0 0-1.65 4.81 5.65 13.3 22.8 26.56 113.68 103.74 151.89 128.37 10.2 6.58 17 2.48 17 2.48z"/>
		<path fill-rule="evenodd" class="s18" d="m2183.49 434.32c0 0 13.64 19.72 20.13 30.38 6 9.8 19 31.67 19 31.67 0 0 53.67-34.13 99.4-74.47 42.17-37.17 65.14-64.56 80.78-83.72-8.47-10.7-21.16-24-44-47.67 0 0 0.9 2.5-6.4 11-22.8 26.56-116.27 106.93-154.51 131.56-10.17 6.58-14.4 1.25-14.4 1.25z"/>
		<path id="wing_low_sf" class="s19" d="m1753.6 796.91q-0.36 0.15-0.72 0.31-0.36 0.15-0.71 0.32-0.35 0.17-0.7 0.36-0.35 0.18-0.69 0.37c-56.5 28.19-328.57 326.62-335.29 333.33-6.72 6.71-297.57-228.94-302.93-238.38-5.36-9.44-500.56-187.73-500.56-187.73l-119.68-10.73c0 0 8 30.86 39 73.9 124.39 78.59 351 119.74 498.18 186 155.21 69.9 272.71 194.13 317.94 299.93 43.93 102.79 45 126.34 71.2 126.34 26.2 0 39.89-63 58.55-102.87 88.27-188.46 241.8-319.56 571.35-408.5 231-62.33 258.85-112.54 258.85-112.54l49.28-116.51c0 0-533.33 125.72-603.07 156.4z"/>
		<path fill-rule="evenodd" class="s20" d="m473.71 662c19.82 52 48.91 101.09 48.91 101.09 0 0 66.83 38.27 140.23 62.47 101.87 33.66 220.2 58.22 310.27 78.84 107.5 24.61 171.27 53.35 244.22 102.44 117.17 78.86 141.22 138.15 181.06 204.9-22.4-56.39-24-94.28-102.12-191.27-112.7-140-185.17-172.47-346.82-232.06-55.66-20.55-133.1-51.13-226.81-86-93.71-34.87-214.06-96.67-286.72-145.41-0.93-0.66 21.41 62.29 37.78 105z"/>
		<path fill-rule="evenodd" class="s21" d="m1559.69 859.63c45.67-50.06 89.07-85.53 162.07-130.17 134.49-82.26 314.56-115.46 500.72-233.46 113.23-71.77 180.36-157.86 180.36-157.86 0 0 4.76 38.33 6.22 83.39q0.37 10 0.37 20 0 10.01-0.38 20.01-0.37 9.99-1.12 19.97-0.75 9.98-1.87 19.92c-3 26.42-6.77 40.85-7.35 41.26-73.71 49.51-165.71 115.71-260.64 151.16-94.93 35.45-184.29 66.32-240.69 87.35-243.7 91.25-349.68 229.48-429.27 372-36.92 66.27-50.69 74.73-50.69 74 0.19-2.73 4-157.48 4-180.17 1.75 0 9.14-5 16.37-17.59 33.62-58.55 68.41-111.17 121.9-169.81z"/>
		<path fill-rule="evenodd" class="s22" d="m2400.91 556c-73.19 48.78-199.3 107.13-293.58 142-94.28 34.87-149.91 50.3-205.93 70.79-157.85 57.8-258.22 118.08-374.58 261.62-78.69 97-91 149-109.4 192.23v156.68c7.06 0 12.21-3.8 16-9.79 2.64-4.09 1.12-43 1.12-76.28 0-25.24 0.15-32.19 13.69-56.93 10.51-19.23 22.58-40.85 30.72-53.51 66.13-102 189.87-174.8 313.26-231 109.61-49.93 269.71-82 375.55-121.21 74.56-27.6 142.06-63.57 142.06-63.57 0 0 23.46-41.59 46.35-93.91 19.31-44.12 45.72-117.77 44.74-117.12z"/>
		<path fill-rule="evenodd" class="s23" d="m1397.58 1031.18c10.62 19.08 20.19 16.6 24 16.6 0 28.19 0.56 175.73 0.65 178.5 0.1 0.78-3.11-9.49-40-75.81-146.93-263.03-288.23-313.57-420.93-363.23-56.3-21-161.06-61.35-256.08-96.75-95.02-35.4-201.93-95.57-275.88-144.72-4.29-2.85 1.07-18.24-1.95-44.65-3.21-28.53-2.53-60.21-1.7-85.5 1.51-45.06 10.64-78 10.64-78 0 0 63.33 86.8 175.83 158.38 68.68 43.81 138.84 75.92 220.76 110.13 104.1 43.39 188.4 68.94 290.67 131.51 82 50.17 124.79 88.78 168.82 138.49 55.32 62.32 84.71 118.04 105.17 155.05z"/>
		<path fill-rule="evenodd" class="s0" d="m1194.72 787.8c67.21 70.75 99.8 108.12 146.37 197.71 32 61.44 38.57 66.31 78.89 222.22l-10.22-153.67c0 0-49.11-87.35-84.08-131.27-57.02-71.59-69.21-86.38-130.96-134.99z"/>
		<path fill-rule="evenodd" class="s1" d="m1417.32 1198.58v-143.15h5.17l-5.17 143.15z"/>
		<path class="s24" d="m1394 1017c10.53 19.45 18 26.55 23.33 26.55 5.33 0 12.8-7.1 23.34-26.55 71.23-131.62 194.53-269.15 404.33-352.25 122.92-48.7 252.74-97 369.91-170.54q-7.31-12.85-15.19-25.36-7.88-12.51-16.32-24.66-8.43-12.14-17.4-23.89-8.98-11.75-18.47-23.09c-143.87-171.71-376.08-257.26-730.13-257.62h-0.07c-354.06 0.36-586.27 85.91-730.13 257.62q-9.49 11.34-18.47 23.09-8.97 11.75-17.41 23.89-8.43 12.14-16.31 24.66-7.88 12.51-15.19 25.36c117.16 73.51 247 121.84 369.9 170.54 209.73 83.1 333.02 220.63 404.28 352.25z"/>
		<path class="s24" d="m1456.14 1340c-10 29.69-19.93 45.65-38.82 45.65-18.88 0-28.86-16-38.81-45.65-88.36-263.36-297.33-381.14-521.8-445.47-100.83-28.91-210.71-57.88-329.65-122.53-9.11 58.87-13.81 122.5-13.81 191.33 0 132.16 34.78 451.49 266.08 626.52 141.17 106.83 330.49 156.36 638 156.82h0.07c307.46-0.46 496.93-49.79 638-156.82 230.64-175 266.08-494.36 266.08-626.52 0-68.83-4.71-132.46-13.82-191.33-118.95 64.62-228.81 93.59-329.65 122.48-224.55 64.36-433.52 182.14-521.87 445.52z"/>
		<path class="s0" d="m2307.58 772c9.11 58.87 13.82 122.5 13.82 191.33 0 132.16-35.44 451.49-266.08 626.52-141 107-330.5 156.36-638 156.82h-0.07c-307.47-0.46-496.79-50-638-156.82-231.3-175-266.08-494.36-266.08-626.52 0-68.83 4.7-132.46 13.81-191.33l-2.74-1.5q-13.94 89.87-13.9 192.83c0 71.23 12.88 436.33 267.2 628.78 145.16 109.85 336.45 156.92 639.57 157.39h0.13c303.64-0.46 494.94-47.53 639.71-157.39 254.32-193 267.2-557.65 267.2-628.78q0-103.1-13.9-192.83z"/>
		<path class="s0" d="m687.16 397.18c143.84-171.71 376.07-257.26 730.13-257.62h0.07c354.05 0.36 586.26 85.91 730.13 257.62q9.49 11.34 18.47 23.09 8.97 11.75 17.4 23.89 8.44 12.15 16.32 24.66 7.88 12.51 15.19 25.36l2.46-1.56q-7.35-12.89-15.27-25.43-7.91-12.55-16.39-24.73-8.47-12.18-17.48-23.97-9-11.79-18.53-23.16c-147.54-176.09-380.23-258.27-732.3-258.63h-0.08c-352.06 0.36-584.75 82.54-732.29 258.63q-9.53 11.37-18.53 23.16-9.01 11.79-17.48 23.97-8.48 12.18-16.39 24.73-7.92 12.54-15.27 25.43l2.46 1.56q7.31-12.85 15.19-25.36 7.88-12.52 16.31-24.66 8.44-12.14 17.41-23.89 8.98-11.75 18.47-23.09z"/>
		<path class="s0" d="m1998.63 885.66l-21.48 6.13c-128.67 36.88-231 85.48-312.89 148.58q-17.57 13.47-34.13 28.16-16.55 14.7-32.01 30.55-15.46 15.85-29.73 32.76-14.28 16.92-27.31 34.82c-36.84 50.9-66.32 108.91-87.62 172.42-10.69 31.87-20.49 43.72-36.14 43.72-15.65 0-25.44-11.85-36.13-43.72-21.31-63.51-50.79-121.52-87.63-172.42q-13.03-17.9-27.3-34.82-14.28-16.92-29.74-32.76-15.46-15.85-32.01-30.55-16.56-14.69-34.13-28.16c-81.86-63.1-184.21-111.7-312.89-148.58l-21.49-6.13c-94.82-27-197.73-56.32-308.5-116.63q-0.22 1.5-0.46 3c119 64.62 228.82 93.59 329.65 122.48 224.47 64.33 433.44 182.11 521.8 445.47 10 29.69 19.93 45.65 38.81 45.65 18.89 0 28.86-16 38.82-45.65 88.35-263.36 297.32-381.14 521.79-445.47 100.84-28.89 210.7-57.86 329.65-122.48q-0.22-1.5-0.46-3c-110.75 60.31-213.65 89.63-308.47 116.63z"/>
		<path class="s0" d="m2307.58 772l2.75-1.5q-0.24-1.5-0.47-3l-2.74 1.5q0.24 1.5 0.46 3z"/>
		<path class="s0" d="m527.52 769l-2.73-1.5q-0.24 1.5-0.47 3l2.74 1.5q0.24-1.5 0.46-3z"/>
		<path class="s0" d="m619.78 494.21l-2.46-1.56q-0.69 1.21-1.39 2.44l2.47 1.56z"/>
		<path class="s0" d="m2216.25 496.65l2.46-1.56-1.38-2.44-2.46 1.56z"/>
		<path class="s24" d="m1977.15 891.79c-128.67 36.88-231 85.48-312.89 148.58q-17.57 13.47-34.13 28.16-16.55 14.7-32.01 30.55-15.46 15.85-29.73 32.76-14.28 16.92-27.31 34.82c-36.84 50.9-66.32 108.91-87.62 172.42-10.69 31.87-20.49 43.72-36.14 43.72-15.65 0-25.44-11.85-36.13-43.72-21.31-63.51-50.79-121.52-87.63-172.42q-13.03-17.9-27.3-34.82-14.28-16.92-29.74-32.76-15.46-15.85-32.01-30.55-16.56-14.69-34.13-28.16c-81.86-63.1-184.21-111.7-312.89-148.58l-21.49-6.13c-95.6-27.22-199.42-56.81-311.23-118.13q-14.4 91.14-14.37 195.83c0 71.23 12.88 436.33 267.2 628.78 145.16 109.85 336.43 156.92 639.57 157.39h0.13c303.63-0.46 494.94-47.53 639.71-157.39 254.32-193 267.2-557.65 267.2-628.78q0-104.82-14.37-195.83c-111.81 61.32-215.63 90.91-311.23 118.13z"/>
		<path class="s24" d="m1417.28 136.73c-352.06 0.36-584.75 82.54-732.29 258.63q-9.75 11.64-18.96 23.72-9.21 12.07-17.86 24.56-8.64 12.48-16.71 25.35-8.06 12.87-15.53 26.09 27.57 17.43 57.5 33.9c91 50.06 187.51 88.08 280.85 124.84q17.26 6.79 34.36 13.56c179.8 71.23 315.34 189.3 402.86 350.93 10.35 19.12 18.56 28 25.82 28 7.27 0 15.47-8.91 25.83-28 87.51-161.63 223.06-279.7 402.85-350.93q17.1-6.78 34.36-13.56c93.35-36.76 189.87-74.82 280.86-124.82q30-16.49 57.49-33.9-7.47-13.22-15.53-26.09-8.06-12.87-16.71-25.35-8.64-12.49-17.85-24.56-9.21-12.08-18.96-23.72c-147.54-176.11-380.26-258.29-732.38-258.65z"/>
		<path class="s25" d="m672.06 531.46c91.15 50.15 187.76 88.2 281.19 125q17.25 6.78 34.35 13.54c179.16 71 314.22 188.62 401.41 349.65 11 20.41 19.78 29.51 28.31 29.51 8.53 0 17.26-9.1 28.32-29.51 87.19-161 222.25-278.67 401.41-349.65q16.9-6.69 34-13.4l0.39-0.16c93.43-36.79 190-74.84 281.18-125q30-16.47 57.51-33.89l2.39-1.53q-0.68-1.24-1.37-2.48-7.49-13.26-15.58-26.16-8.09-12.91-16.77-25.43-8.67-12.52-17.91-24.63-9.24-12.11-19.02-23.78c-148.12-176.78-381.5-259.28-734.55-259.65-353 0.37-586.35 82.87-734.46 259.65q-9.78 11.67-19.02 23.78-9.24 12.11-17.91 24.63-8.68 12.52-16.77 25.43-8.09 12.9-15.58 26.16-0.7 1.24-1.38 2.48l2.4 1.53q27.53 17.45 57.46 33.91zm12.94-136.1c147.54-176.09 380.23-258.27 732.29-258.63 352.12 0.36 584.84 82.54 732.38 258.63q9.75 11.64 18.96 23.72 9.21 12.07 17.85 24.56 8.65 12.48 16.71 25.35 8.06 12.87 15.53 26.09-27.55 17.43-57.49 33.9c-91 50.06-187.51 88.08-280.86 124.84q-17.25 6.79-34.36 13.56c-179.79 71.23-315.34 189.3-402.85 350.93-10.36 19.12-18.56 28-25.83 28-7.26 0-15.47-8.91-25.82-28-87.51-161.63-223.07-279.7-402.87-350.93q-17.1-6.78-34.36-13.56c-93.34-36.76-189.87-74.82-280.85-124.82q-30-16.49-57.5-33.9 7.47-13.23 15.53-26.1 8.07-12.87 16.72-25.35 8.64-12.49 17.85-24.57 9.22-12.08 18.97-23.72z"/>
		<path class="s25" d="m2312.49 766.08q-0.23-1.5-0.47-3l-2.64 1.46c-111.91 61.52-215.85 91.14-311.53 118.39l-21.48 6.13c-129 37-231.68 85.74-313.84 149.06q-17.65 13.53-34.28 28.3-16.63 14.76-32.16 30.68-15.53 15.92-29.87 32.92-14.34 17-27.43 34.98c-37 51.13-66.62 109.4-88 173.18-10.22 30.46-19.28 41.78-33.45 41.78-14.17 0-23.23-11.32-33.44-41.78-21.4-63.78-51-122-88-173.18q-13.09-17.98-27.43-34.98-14.34-16.99-29.87-32.91-15.53-15.92-32.17-30.69-16.63-14.76-34.28-28.29c-82.15-63.32-184.85-112.08-313.88-149.06q-10.66-3.06-21.48-6.13c-95.68-27.25-199.61-56.87-311.53-118.39l-2.64-1.46q-0.23 1.5-0.47 3-14.6 91.78-14.56 197.28c0 71.47 12.93 437.78 268.32 631 145.69 110.25 337.48 157.49 641.26 158h0.16c304.29-0.45 496.11-47.7 641.41-158 255.38-193.81 268.32-559.66 268.32-631q0-105.64-14.57-197.29zm-255.49 826.06c-144.74 109.86-336 156.93-639.68 157.39h-0.13c-303.14-0.47-494.41-47.54-639.57-157.39-254.32-192.45-267.2-557.55-267.2-628.78q0-104.82 14.37-195.83c111.81 61.32 215.63 90.91 311.21 118.13l21.47 6.13c128.68 36.88 231 85.48 312.89 148.58q17.57 13.47 34.13 28.16 16.55 14.7 32.01 30.55 15.46 15.84 29.74 32.76 14.27 16.92 27.3 34.82c36.84 50.9 66.32 108.91 87.63 172.42 10.69 31.87 20.48 43.72 36.13 43.72 15.65 0 25.45-11.85 36.14-43.72 21.3-63.51 50.78-121.52 87.62-172.42q13.03-17.9 27.31-34.82 14.27-16.91 29.73-32.76 15.46-15.85 32.01-30.55 16.56-14.69 34.13-28.16c81.87-63.1 184.22-111.7 312.89-148.58l21.48-6.13c95.6-27.22 199.42-56.81 311.23-118.13q14.4 91.14 14.37 195.83c0.02 71.13-12.86 435.78-267.21 628.78z"/>
		<path fill-rule="evenodd" class="s1" d="m432.05 342.87c2.1-9.43 4.7-8.06 3-0.34-5.44 25.11-7.95 73.43-7 122.29 0.68 35 7.86 72.5 7.86 72.5-4.52-0.36-11 1-12.8 7-5.56-56.45-8.6-122.94 8.94-201.45z"/>
		<path fill-rule="evenodd" class="s26" d="m2405.56 346.08c-2.11-9.43-4.7-8.06-3-0.34 5.43 25.1 6.89 73 5.95 121.83-0.68 35-9.34 73.17-9.34 73.17 4.52-0.36 10.65 5.88 12.48 11.81 5.55-56.41 11.44-127.96-6.09-206.47z"/>
		<path class="s0" d="m2609.72 942.53c0 156.74-38.79 556.31-354.17 762.47-188.87 123.47-432.66 203.3-838.18 203.85h-0.1c-405.51-0.55-649.27-80.38-838.17-203.85-315.38-206.16-354.17-605.73-354.17-762.47 0-282.88 89.09-493.41 229.37-644 189.74-203.63 496-297 963-297.43h0.1c467 0.43 773.23 93.8 963 297.43 140.78 151.18 229.32 360.23 229.32 644zm-1192.41 963.47h0.06c194.14-0.26 357.57-18.49 499.62-55.74 124.88-32.74 235.11-81 337-147.65 327.44-214.05 352.89-635.9 352.89-760.1 0-136.15-20.76-260.88-61.7-370.73-38-101.92-94.14-193.2-166.91-271.3-95.2-102.15-218.27-175.48-376.27-224.12-157.51-48.49-348.74-72.17-584.72-72.36-235.89 0.22-427.12 23.9-584.62 72.39-158 48.65-281.08 122-376.29 224.14-72.49 77.8-128.58 169.12-166.71 271.41-41.07 110.22-61.9 234.91-61.9 370.62 0 124.2 25.45 546.05 352.89 760.1 101.89 66.61 212.13 114.91 337 147.65 142.05 37.25 305.47 55.48 499.62 55.74z"/>
		<path class="s27" d="m1417.28 1906c-194.15-0.26-357.57-18.49-499.62-55.74-124.88-32.74-235.12-81-337-147.65-327.44-214.05-352.89-635.9-352.89-760.1 0-135.71 20.83-260.4 61.9-370.62 38.12-102.27 94.21-193.59 166.7-271.39 95.21-102.17 218.29-175.5 376.29-224.14 157.5-48.49 348.73-72.17 584.62-72.36 236 0.22 427.21 23.9 584.71 72.39 158 48.65 281.08 122 376.29 224.14 72.77 78.1 128.92 169.38 166.91 271.3 40.94 109.85 61.7 234.58 61.7 370.73 0 124.2-25.45 546.05-352.89 760.1-101.9 66.61-212.13 114.91-337 147.65-142 37.25-305.48 55.48-499.62 55.74h-0.09zm0.08-2.83c193.9-0.26 357.1-18.46 498.91-55.65 124.58-32.66 234.54-80.84 336.18-147.28 326.25-213.27 351.61-633.89 351.61-757.73 0-135.81-20.7-260.21-61.52-369.74-37.86-101.57-93.82-192.54-166.34-270.36-94.86-101.8-217.54-174.86-375-223.36-157.27-48.39-348.26-72.05-583.92-72.25-235.6 0.2-426.56 23.86-583.78 72.27-157.5 48.5-280.2 121.56-375.06 223.36-72.24 77.57-128.13 168.57-166.12 270.47-41 109.9-61.73 234.26-61.73 369.63 0 123.84 25.36 544.46 351.61 757.73 101.63 66.44 211.6 114.62 336.18 147.28 141.81 37.19 305 55.39 498.93 55.65z"/>
		<path class="s16" d="m2398.19 566.32q0.09-0.25 0.08-0.52-0.01-0.26-0.12-0.51-0.11-0.24-0.31-0.42-0.19-0.18-0.44-0.28-0.26-0.1-0.53-0.09-0.27 0.01-0.52 0.12-0.25 0.12-0.43 0.32-0.18 0.21-0.27 0.47c-0.29 0.78-28 78.71-40.89 109.2-12.89 30.49-42.78 86-43.07 86.54q-0.14 0.24-0.17 0.51-0.04 0.27 0.04 0.53 0.08 0.26 0.25 0.48 0.18 0.21 0.42 0.33 0.08 0.03 0.15 0.05 0.08 0.02 0.16 0.03 0.08 0.01 0.16 0.01 0.08 0.01 0.16 0 0.18 0 0.35-0.05 0.17-0.04 0.33-0.13 0.15-0.09 0.28-0.22 0.12-0.13 0.21-0.28c0.06-0.1 26.6-47.16 42.95-86.84 16.35-39.68 41.21-109.25 41.21-109.25z"/>
		<path class="s16" d="m436.8 566.32q-0.09-0.25-0.08-0.52 0.01-0.26 0.12-0.51 0.11-0.24 0.31-0.42 0.19-0.18 0.44-0.28 0.26-0.1 0.53-0.09 0.27 0.01 0.52 0.12 0.25 0.12 0.43 0.32 0.18 0.21 0.27 0.47c0.29 0.78 28 78.71 40.89 109.2 12.89 30.49 42.78 86 43.07 86.54q0.14 0.24 0.17 0.51 0.04 0.27-0.04 0.53-0.08 0.26-0.25 0.48-0.18 0.21-0.42 0.33-0.08 0.03-0.15 0.05-0.08 0.02-0.16 0.03-0.08 0.01-0.16 0.01-0.08 0.01-0.16 0-0.18 0-0.35-0.05-0.17-0.04-0.33-0.13-0.15-0.09-0.28-0.22-0.12-0.13-0.21-0.28c-0.06-0.1-26.6-47.16-43-86.84-16.4-39.68-41.16-109.25-41.16-109.25z"/>
		<path fill-rule="evenodd" class="s28" d="m2091.75 1567.25c16.38-14.59 13.11-13.84-7.39 3.16-29.09 24.13-54.16 44.33-104.86 72.41-17.54 9.1-34.33 19.09-53.18 26.77-166.88 68.17-279.86 75.5-478.71 81.67q-7.59 0.23-15.14 0.43-7.54 0-15.15 0c-164.71 0-338.55-15.35-480.66-68.33-19.08-7.09-38.19-16.45-56-25-38.3-21.2-70.34-40.66-103-66.26-21-16.42-26.57-18.44-9.74-4.36-11.77-8.45-9.69-6.49 6.11 8 124.68 114 264.09 159.79 473.94 174.28 57.55 5.09 119 6.7 185 5.11 66-0.45 127.38-4 184.74-10.84 209.29-21 347.16-71.07 468.24-188.89 15.28-14.93 17.3-16.95 5.8-8.15z"/>
		<path class="s29" d="m2435.4 611.69c-6.76-19.78-14.29-39.36-22.39-58.22-2.78-6.47-7.83-10.17-13.87-10.17q-1.21 0.03-2.39 0.23-1.19 0.21-2.34 0.59-1.14 0.38-2.21 0.93-1.08 0.55-2.06 1.25c-147.27 100.1-301.44 154.45-425.34 198.12-111.07 39.16-216 76.14-285 125.89-50.66 36.52-102 87-152.5 150-36.29 45.26-74.25 108.28-110 182-35.72-73.7-73.69-136.72-110-182-50.54-63-101.85-113.51-152.5-150-69-49.75-173.94-86.74-285-125.89-123.8-43.67-278.03-98.02-425.29-198.17q-0.98-0.7-2.06-1.25-1.07-0.55-2.21-0.93-1.15-0.38-2.34-0.59-1.18-0.2-2.39-0.23c-6 0-11.09 3.7-13.86 10.17-8.1 18.85-15.63 38.44-22.4 58.22-36 105.36-53.55 223.23-53.55 360.34 0 144.34 30.87 501.06 316.75 695.69 88.55 60.33 188.44 103.45 305.48 131.94 123 29.92 268.7 44.73 445.42 45.24h7.94c176.72-0.51 322.45-15.32 445.42-45.24 117-28.49 217-71.63 305.49-131.89 285.89-194.63 316.8-551.35 316.8-695.72 0-137.08-17.56-254.95-53.6-360.31zm-264.8 1053.7c-88.23 60.07-187.86 103.07-304.56 131.47-123.41 30-269.83 44.81-447.58 45.17h-2.27c-177.76-0.36-324.18-15.13-447.58-45.17-116.71-28.4-216.33-71.4-304.57-131.47-284.77-193.87-315.51-549.47-315.51-693.39 0-136.79 17.46-254.37 53.4-359.44 6.74-19.7 14.24-39.22 22.31-58 2.31-5.38 6.41-8.46 11.26-8.46q0.99 0.02 1.97 0.19 0.98 0.17 1.92 0.48 0.94 0.32 1.83 0.77 0.88 0.44 1.69 1.02c147.57 100.36 301.94 154.78 426 198.5 110.88 39.09 215.61 76 284.29 125.52 54.3 39.13 105.42 91.46 152 149.5 40.75 50.83 79.51 118.36 112.19 186.47 32.68-68.11 71.45-135.64 112.19-186.47 46.53-58 97.66-110.36 152-149.5 68.69-49.52 173.41-86.43 284.29-125.52 124-43.73 278.41-98.14 426-198.5q0.81-0.58 1.69-1.03 0.88-0.45 1.82-0.76 0.95-0.31 1.92-0.48 0.98-0.17 1.97-0.19c4.85 0 9 3.08 11.26 8.46 8.07 18.79 15.58 38.31 22.32 58 35.93 105.08 53.4 222.65 53.4 359.44-0.13 143.92-30.88 499.52-315.65 693.39z"/>
		<path class="s30" d="m583.83 339.76q-0.32 0-0.64-0.06-0.31-0.06-0.61-0.18-0.29-0.12-0.56-0.29-0.27-0.18-0.5-0.4-1.23-1.18-2.52-2.29-1.3-1.11-2.65-2.14-1.36-1.03-2.78-1.98-1.41-0.94-2.88-1.81-0.37-0.22-0.69-0.52-0.31-0.3-0.54-0.67-0.24-0.36-0.39-0.77-0.14-0.41-0.19-0.84c-0.36-3-2.1-2.83 6.54-11.23l1-1c12.28-12.51 27.64-26.79 42.15-39.18q9.76-8.43 19.81-16.51 10.04-8.08 20.37-15.81 10.32-7.73 20.9-15.1 10.58-7.37 21.41-14.37c56.68-36.61 121.16-67.52 191.64-91.86 71.3-24.64 151.3-43.41 237.6-55.75 85.85-12.31 180.93-18.68 282.7-19h8.79c101.83 0.27 197 6.64 282.92 18.94 86.29 12.4 166.29 31.17 237.58 55.81 70.48 24.34 134.95 55.25 191.63 91.87q10.83 7 21.41 14.37 10.59 7.37 20.91 15.1 10.32 7.73 20.37 15.82 10.05 8.08 19.81 16.51c14.16 12.1 30 26.83 42.34 39.41 0.25 0.26 0.68 0.66 1.22 1.17 7.76 7.39 5.74 8 5.41 10.84q-0.05 0.44-0.19 0.86-0.15 0.42-0.39 0.79-0.24 0.37-0.57 0.68-0.32 0.31-0.7 0.53-1.46 0.92-2.86 1.92-1.4 1.01-2.73 2.09-1.34 1.09-2.61 2.25-1.27 1.16-2.47 2.4-0.23 0.23-0.51 0.41-0.27 0.17-0.58 0.29-0.3 0.12-0.62 0.18-0.32 0.06-0.65 0.06c-3.4 0-5.74-6.84-9.56-10.95-174.4-173.35-443.75-257.73-823.46-258.1-379.85 0.37-649.12 84.63-823.18 257.61-5.11 5.5-7.31 10.9-10.48 10.9z"/>
		<path class="s31" d="m2399.22 561.59l-1.34-3.17-2.85 1.93c-50.72 34.34-107.33 65.23-195.41 106.65-72.51 34.1-152 62.23-228.85 89.45-109.83 38.88-213.57 75.61-280.51 124.07-102.62 74.3-198.37 196.92-262.69 336.41-4.64 10.08-6.75 12.68-10.25 12.68-3.5 0-5.6-2.6-10.25-12.68-64.32-139.49-160.06-262.11-262.69-336.41-66.93-48.46-170.67-85.19-280.49-124.07-76.89-27.22-156.36-55.36-228.89-89.45-88-41.42-144.66-72.31-195.38-106.65l-2.85-1.93-1.35 3.17c-49.51 116.75-73.58 250.66-73.58 409.41 0 142 30.18 492.67 309.72 683.19 174.44 118.81 404.17 172.15 744.91 172.81h1.7c340.75-0.67 570.53-54 744.92-172.84 279.53-190.51 309.71-541.23 309.71-683.16 0-158.75-24.07-292.67-73.58-409.41zm-239.32 1087.9c-173.55 118.28-402.57 171.29-742.57 171.86-340-0.57-569-53.58-742.58-171.86-277.31-188.99-307.24-537.49-307.24-678.49 0-156.52 23.48-288.72 71.79-404 50.25 33.74 106.61 64.38 193.31 105.15 72.77 34.19 152.39 62.38 229.39 89.64 109.44 38.74 212.8 75.34 279.07 123.32 101.86 73.75 197 195.55 260.87 334.19 4.58 9.94 7.9 16.83 15.39 16.83 7.49 0 10.81-6.89 15.4-16.83 63.92-138.64 159-260.45 260.87-334.19 66.27-48 169.63-84.58 279.07-123.33 77-27.25 156.6-55.44 229.37-89.66 86.71-40.77 143.06-71.41 193.31-105.15 48.31 115.28 71.8 247.49 71.8 404-0.01 141.03-29.95 489.53-307.25 678.52z"/>
		<path class="s32" d="m2399.22 561.59l-1.34-3.17-2.85 1.93c-50.72 34.34-107.33 65.23-195.41 106.65-72.51 34.1-152 62.23-228.85 89.45-109.83 38.88-213.57 75.61-280.51 124.07-102.62 74.3-198.37 196.92-262.69 336.41-4.64 10.08-6.75 12.68-10.25 12.68-3.5 0-5.6-2.6-10.25-12.68-64.32-139.49-160.06-262.11-262.69-336.41-66.93-48.46-170.67-85.19-280.49-124.07-76.89-27.22-156.36-55.36-228.89-89.45-88-41.42-144.66-72.31-195.38-106.65l-2.85-1.93-1.35 3.17c-49.51 116.75-73.58 250.66-73.58 409.41 0 142 30.18 492.67 309.72 683.19 174.44 118.81 404.17 172.15 744.91 172.81h1.7c340.75-0.67 570.53-54 744.92-172.84 279.53-190.51 309.71-541.23 309.71-683.16 0-158.75-24.07-292.67-73.58-409.41zm-239.32 1087.9c-173.55 118.28-402.57 171.29-742.57 171.86-340-0.57-569-53.58-742.58-171.86-277.31-188.99-307.24-537.49-307.24-678.49 0-156.52 23.48-288.72 71.79-404 50.25 33.74 106.61 64.38 193.31 105.15 72.77 34.19 152.39 62.38 229.39 89.64 109.44 38.74 212.8 75.34 279.07 123.32 101.86 73.75 197 195.55 260.87 334.19 4.58 9.94 7.9 16.83 15.39 16.83 7.49 0 10.81-6.89 15.4-16.83 63.92-138.64 159-260.45 260.87-334.19 66.27-48 169.63-84.58 279.07-123.33 77-27.25 156.6-55.44 229.37-89.66 86.71-40.77 143.06-71.41 193.31-105.15 48.31 115.28 71.8 247.49 71.8 404-0.01 141.03-29.95 489.53-307.25 678.52z"/>
		<path class="s1" d="m2432.72 607.23c-6.74-19.79-14.25-39.4-22.32-58.27-2.31-5.4-6.41-8.5-11.26-8.5q-0.99 0.02-1.97 0.19-0.98 0.17-1.92 0.49-0.94 0.31-1.82 0.76-0.88 0.45-1.69 1.03c-147.58 100.8-301.95 155.45-426 199.37-110.88 39.26-215.6 76.33-284.29 126.06-54.29 39.31-105.42 91.86-152 150.16-40.74 51-79.51 118.87-112.19 187.28-32.68-68.41-71.44-136.23-112.19-187.28-46.53-58.3-97.65-110.85-152-150.16-68.68-49.73-173.41-86.81-284.29-126.06-124-43.92-278.41-98.57-426-199.37q-0.81-0.58-1.69-1.03-0.89-0.45-1.83-0.76-0.94-0.32-1.92-0.49-0.98-0.17-1.97-0.19c-4.85 0-8.95 3.1-11.26 8.5-8.07 18.87-15.57 38.48-22.31 58.27-35.94 105.53-53.4 223.61-53.4 361 0 144.51 30.74 501.67 315.51 696.38 88.24 60.33 187.86 103.52 304.57 132 123.4 30.17 269.82 45 447.58 45.37h2.27c177.75-0.36 324.17-15.2 447.58-45.37 116.7-28.52 216.33-71.71 304.56-132 284.77-194.71 315.52-551.87 315.52-696.38 0.13-137.39-17.34-255.47-53.27-361zm-269.79 1046.71c-174.49 118.92-404.45 172.21-745.61 172.79-341.16-0.58-571.11-53.87-745.6-172.79-279.43-190.44-309.59-541-309.59-683 0-159.94 24.46-294.76 74.77-412.14 51.33 35 108.73 66.43 198 108.41 72.52 34.1 152 62.25 228.89 89.47 109.81 38.87 213.53 75.59 280.42 124 102.59 74.27 198.31 196.85 262.6 336.3 4.25 9.22 6.36 12.21 9.38 12.75v0.1h2.27v-0.1c3-0.54 5.12-3.53 9.37-12.75 64.3-139.45 160-262 262.6-336.3 66.9-48.44 170.62-85.16 280.43-124 76.87-27.21 156.36-55.35 228.88-89.46 89.28-42 146.68-73.4 198-108.41 50.32 117.38 74.78 252.2 74.78 412.14 0 141.94-30.17 492.55-309.59 682.99z"/>
		<path class="s1" d="m2357.05 289.07c-15.51 6.71-66.31 23.63-87.53 30.64l-0.59 0.2q-0.53 0.17-1.06 0.3-0.54 0.12-1.09 0.21-0.54 0.09-1.1 0.13-0.55 0.04-1.1 0.04-1.09 0.04-2.18-0.12-1.08-0.17-2.11-0.54-1.02-0.38-1.96-0.94-0.94-0.56-1.75-1.3c-12.32-12.55-28-27.12-42.17-39.25q-9.73-8.4-19.74-16.45-10.01-8.05-20.29-15.76-10.28-7.7-20.83-15.04-10.54-7.35-21.33-14.32c-56.49-36.49-120.75-67.3-191-91.57-71.22-24.59-150.97-43.3-237.11-55.64-86.56-12.4-182.5-18.76-285.18-18.92h-3.31c-102.63 0.17-198.54 6.53-285.09 18.92-86.14 12.34-165.91 31.05-237.08 55.64-70.26 24.27-134.53 55.08-191 91.57q-10.79 6.97-21.33 14.31-10.55 7.35-20.83 15.05-10.28 7.7-20.29 15.75-10.01 8.06-19.74 16.45c-14.45 12.35-29.75 26.57-42 39q-0.92 0.84-1.97 1.51-1.05 0.67-2.2 1.14-1.15 0.48-2.37 0.75-1.22 0.27-2.46 0.32-0.51-0.01-1.02-0.07-0.51-0.06-1.01-0.16-0.51-0.1-1-0.24-0.49-0.14-0.97-0.33l-0.63-0.21c-21.21-7-71.34-23.69-86.81-30.39l-1 1.2c4.83 2.09 14.36 7.31 25.71 12.4l0.12 0.06c22.77 10.22 51.12 22.95 56.55 24.75q1.07 0.37 2.11 0.8 1.05 0.42 2.07 0.9 1.02 0.48 2.01 1.02 1 0.53 1.96 1.12 1.54 0.91 3.03 1.91 1.48 1 2.91 2.08 1.42 1.08 2.78 2.25 1.36 1.16 2.65 2.4 0.38 0.37 0.76 0.75 0.37 0.38 0.72 0.78 0.36 0.4 0.7 0.81 0.34 0.41 0.66 0.83c2.65 3.59 57.72 77.46 68.45 92.13l0.95-1.32c-0.44-0.66-45.63-67.91-59.48-87.9-4.15-6-3.47-15.65 0.54-20 174.7-173.52 444.64-258.06 825.3-258.44 380.55 0.38 650.79 85.33 825.49 259 4.05 4.36 4.14 13.6 0 19.59-12.85 18.54-51.74 76.23-59.37 87.56l1.16 1.52 0.92-1.27c10.73-14.67 64.15-87.73 66.82-91.32q0.33-0.44 0.68-0.86 0.35-0.42 0.72-0.83 0.36-0.41 0.74-0.81 0.38-0.4 0.77-0.78 1.27-1.29 2.6-2.51 1.34-1.21 2.75-2.35 1.4-1.14 2.87-2.19 1.47-1.05 3-2.02 1.11-0.7 2.24-1.35 1.14-0.65 2.3-1.26 1.16-0.6 2.35-1.15 1.19-0.54 2.4-1.04c5.43-1.8 33.17-14.4 55.95-24.63 11.39-5.12 22.24-8.92 27.1-11z"/>
		<path class="s24" d="m857.49 891.79c128.68 36.88 231 85.48 312.89 148.58q17.57 13.47 34.13 28.16 16.55 14.7 32.01 30.55 15.46 15.84 29.74 32.76 14.27 16.92 27.3 34.82c36.84 50.9 66.32 108.91 87.63 172.42 10.69 31.87 20.48 43.72 36.13 43.72 15.65 0 25.45-11.85 36.14-43.72 21.3-63.51 50.78-121.52 87.62-172.42q13.03-17.9 27.31-34.82 14.27-16.91 29.73-32.76 15.46-15.85 32.01-30.55 16.56-14.69 34.13-28.16c81.87-63.1 184.22-111.7 312.89-148.58l21.48-6.13c95.6-27.22 199.42-56.81 311.23-118.13q14.4 91.14 14.37 195.83c0 71.23-12.88 436.33-267.2 628.78-145.17 109.85-336.44 156.92-639.57 157.39h-0.14c-303.62-0.46-494.94-47.53-639.71-157.39-254.31-193-267.19-557.65-267.19-628.78q0-104.82 14.37-195.83c111.81 61.32 215.63 90.91 311.21 118.13z"/>
		<path class="s24" d="m1417.36 136.73c352.07 0.36 584.76 82.54 732.3 258.63q9.75 11.64 18.96 23.72 9.21 12.07 17.85 24.56 8.65 12.48 16.71 25.35 8.06 12.87 15.53 26.09-27.55 17.43-57.49 33.9c-91 50.06-187.51 88.08-280.86 124.84q-17.25 6.79-34.36 13.56c-179.79 71.23-315.34 189.3-402.85 350.93-10.36 19.12-18.56 28-25.83 28-7.26 0-15.47-8.91-25.82-28-87.5-161.63-223.06-279.7-402.86-350.93q-17.1-6.78-34.36-13.56c-93.34-36.76-189.87-74.82-280.85-124.82q-30-16.49-57.5-33.9 7.47-13.23 15.53-26.1 8.07-12.87 16.72-25.35 8.64-12.49 17.85-24.57 9.22-12.08 18.97-23.72c147.53-176.09 380.25-258.27 732.36-258.63z"/>
		<path class="s33" d="m2220.09 497.57l2.39-1.53q-0.69-1.24-1.37-2.48-7.49-13.26-15.58-26.16-8.09-12.91-16.77-25.43-8.67-12.52-17.91-24.63-9.24-12.11-19.02-23.78c-148.12-176.78-381.5-259.28-734.46-259.65-353.06 0.37-586.44 82.87-734.55 259.65q-9.78 11.67-19.02 23.78-9.24 12.11-17.91 24.63-8.68 12.52-16.77 25.43-8.09 12.9-15.58 26.16-0.7 1.24-1.38 2.48l2.4 1.53q27.57 17.42 57.5 33.89c91.14 50.15 187.75 88.2 281.18 125l0.4 0.16q17 6.72 34 13.4c179.16 71 314.22 188.62 401.41 349.65 11 20.41 19.78 29.51 28.31 29.51 8.53 0 17.26-9.1 28.32-29.51 87.19-161 222.24-278.67 401.41-349.65q17.09-6.76 34.35-13.55c93.43-36.8 190-74.85 281.18-125q29.93-16.47 57.47-33.9zm-1.38-2.49q-27.55 17.43-57.49 33.9c-91 50.06-187.51 88.08-280.86 124.84q-17.25 6.79-34.36 13.56c-179.79 71.23-315.34 189.3-402.85 350.93-10.36 19.12-18.56 28-25.83 28-7.26 0-15.47-8.91-25.82-28-87.5-161.63-223.06-279.7-402.86-350.93q-17.1-6.78-34.36-13.56c-93.34-36.76-189.87-74.82-280.85-124.82q-30-16.49-57.5-33.9 7.47-13.23 15.53-26.1 8.07-12.87 16.72-25.35 8.64-12.49 17.85-24.57 9.22-12.08 18.97-23.72c147.54-176.09 380.26-258.27 732.37-258.63 352.07 0.36 584.76 82.54 732.3 258.63q9.75 11.64 18.96 23.72 9.2 12.07 17.85 24.56 8.64 12.48 16.7 25.35 8.07 12.87 15.53 26.09z"/>
		<path class="s33" d="m507.59 963.36c0 71.37 12.93 437.22 268.31 631 145.3 110.27 337.13 157.52 641.42 158h0.16c303.78-0.47 495.56-47.71 641.26-158 255.38-193.26 268.32-559.57 268.32-631q0-105.63-14.57-197.28-0.23-1.5-0.47-3l-2.64 1.46c-111.91 61.52-215.85 91.14-311.52 118.39l-21.49 6.13c-129 37-231.68 85.74-313.84 149.06q-17.65 13.53-34.28 28.3-16.63 14.76-32.16 30.68-15.53 15.92-29.87 32.92-14.35 17-27.43 34.98c-37 51.13-66.62 109.4-88 173.18-10.22 30.46-19.28 41.78-33.45 41.78-14.17 0-23.23-11.32-33.44-41.78-21.4-63.78-51-122-88-173.18q-13.09-17.98-27.43-34.98-14.34-16.99-29.87-32.91-15.53-15.92-32.17-30.69-16.63-14.76-34.28-28.29c-82.15-63.32-184.85-112.08-313.88-149.06q-10.66-3.06-21.48-6.13c-95.68-27.25-199.61-56.87-311.53-118.39l-2.64-1.46q-0.23 1.5-0.47 3-14.6 91.78-14.56 197.27zm2.83 0q0-104.82 14.37-195.83c111.81 61.32 215.63 90.91 311.21 118.13l21.47 6.13c128.68 36.88 231 85.48 312.89 148.58q17.57 13.47 34.13 28.16 16.55 14.7 32.01 30.55 15.46 15.84 29.74 32.76 14.27 16.92 27.3 34.82c36.84 50.9 66.32 108.91 87.63 172.42 10.69 31.87 20.48 43.72 36.13 43.72 15.65 0 25.45-11.85 36.14-43.72 21.3-63.51 50.78-121.52 87.62-172.42q13.03-17.9 27.31-34.82 14.27-16.91 29.73-32.76 15.46-15.85 32.01-30.55 16.56-14.69 34.13-28.16c81.87-63.1 184.22-111.7 312.89-148.58l21.48-6.13c95.6-27.22 199.42-56.81 311.23-118.13q14.4 91.14 14.37 195.83c0 71.23-12.88 436.33-267.2 628.78-145.17 109.85-336.44 156.92-639.57 157.39h-0.14c-303.62-0.46-494.94-47.53-639.71-157.39-254.29-193-267.17-557.65-267.17-628.78z"/>
		<path class="s34" d="m1417.33 1906c-194.15-0.26-357.57-18.49-499.62-55.74-124.88-32.74-235.12-81-337-147.65-327.44-214.05-352.89-635.9-352.89-760.1 0-136.15 20.76-260.88 61.7-370.73 38-101.92 94.14-193.2 166.91-271.3 95.15-102.15 218.23-175.48 376.23-224.12 157.5-48.49 348.73-72.17 584.71-72.36 235.89 0.22 427.12 23.9 584.61 72.39 158 48.65 281.09 122 376.3 224.14 72.49 77.8 128.58 169.12 166.7 271.41 41.08 110.22 61.91 234.91 61.91 370.62 0 124.2-25.45 546.05-352.89 760.1-101.9 66.61-212.13 114.91-337 147.65-142 37.25-305.48 55.48-499.62 55.74zm0-2.83c193.93-0.26 357.13-18.46 498.94-55.65 124.58-32.66 234.54-80.84 336.18-147.28 326.25-213.27 351.61-633.89 351.61-757.73 0-135.37-20.77-259.73-61.73-369.63-38-101.88-93.89-192.88-166.13-270.45-94.86-101.8-217.54-174.86-375-223.36-157.27-48.41-348.2-72.07-583.83-72.27-235.66 0.2-426.65 23.86-583.88 72.27-157.49 48.5-280.19 121.56-375.05 223.36-72.51 77.82-128.44 168.79-166.33 270.36-40.82 109.53-61.52 233.93-61.52 369.74 0 123.84 25.36 544.46 351.61 757.73 101.63 66.44 211.6 114.62 336.18 147.28 141.81 37.19 305 55.39 498.9 55.65z"/>
	</g>
</svg>