<svg version="1.2" xmlns="http://www.w3.org/2000/svg" viewBox="0 0 950 601" width="950" height="601">
	<style>
		.s0 { fill: #000000 } 
	</style>
	<path id="path1" class="s0" d="m474.88 1c-73.33 0-135.49 11.5-191.97 37.22-36.64 16.7-71.48 40.06-102.5 73.13-16.17 17.24-33.66 42.2-44.23 64.64-23.81 50.52-26.36 90.7-26.36 122.07 0 17.83 0.12 34.36 4.84 59.32 3.63 19.21 9.9 40.06 20.65 62.76 36.82 77.77 104.89 120 146.85 138.96 56.9 25.72 118.13 37.58 192.72 37.58 74.59 0 135.51-11.59 192.29-37.58 35.33-16.17 107.94-57.64 146.47-138.96 25.07-52.92 25.54-100.26 25.54-122.08 0-33.08-2.95-73.01-26.52-122.07-35.5-73.91-97.59-115.14-145.92-137.28-55.72-25.52-118.54-37.71-191.86-37.71zm0 32.12c62.24 0 115.86 11 163.87 35.03 41.98 21.01 75.66 49.3 97.18 81.75 0 0-66.68 33.45-100.09 50.1-18.56 9.24-78.04 39.49-88.11 48.73-12.09 11.11-25.32 30.19-33.94 42.54-13.17 18.85-26.47 38.92-39.27 58.16-12.89-19.07-26.19-39.31-39.36-58.16-8.63-12.35-20.98-30.66-33.97-42.58-5.82-5.35-37.76-23.78-87.53-48.58l-100.79-50.24c24.32-35.13 55.73-60.71 97.71-81.72 48.01-24.03 102.06-35.03 164.3-35.03zm294.14 190.07c8.27 20.07 11.85 47.96 11.85 74.87 0 49.64-9.63 87.6-28.96 123.92-8.21 15.44-20.87 34.48-37.92 52.27-19.11 19.93-44.06 39.68-74.56 54.92-48.23 24.1-100.68 35.4-164.55 35.4-63.88 0-116.97-11.35-165.06-35.24-59.06-29.34-94.12-72.47-112.89-107.68-18.02-33.81-28.91-71.45-28.91-123.59 0-26.91 3.88-54.94 11.77-74.84 42.78 18.1 85.12 36.41 127.21 55.81 50.76 23.4 82.85 40.36 89.35 46.15 10.63 9.48 27.25 31.96 32.26 38.81 13.73 18.73 27.13 37.32 40.61 56.19h10.43c13.48-18.87 27.1-37.69 40.74-56.19 5.43-7.38 20.95-28.62 30.89-37.47 8.04-7.17 35.98-22.39 90.89-47.7 42.09-19.41 84.07-37.52 126.85-55.63z"/>
</svg>